<svg version="1.2" xmlns="http://www.w3.org/2000/svg" viewBox="0 0 650 500" width="650" height="500">
	<title>menina-dinheiro-svg</title>
	<style>
		.s0 { fill: #e1e1e1 } 
		.s1 { fill: #ffffff } 
		.s2 { fill: #ececec } 
		.s3 { fill: #f5f5f5 } 
		.s4 { fill: #fafafa } 
		.s5 { fill: #1a2e35 } 
		.s6 { fill: #ffbf9d } 
		.s7 { fill: #ff9a6c } 
		.s8 { fill: #ff735d } 
		.s9 { fill: #375a64 } 
		.s10 { fill: #000000 } 
		.s11 { fill: none;stroke: #44555b;stroke-width: .1 } 
	</style>
	<g id="Layer">
		<g id="Layer">
			<g id="Layer">
				<g id="Layer">
					<path id="Layer" class="s0" d="m243.5 15.9c6.3-8.6 22.9-3.2 34.2 3.8 0 0 7.8 4.3 10.8 6.5q0 0 0.1 0l26.5-3.8c2.2-0.3 4.4 0.1 6.3 1.3l2.2 1.3c1.1 0.6 1 2.4-0.1 3l-19.6 9.7c0 0.1 0 0.1 0 0.3 10.4 7.9 19.3 14.6 19.3 14.6q0.2 0.1 0.3 0.3c3.6 2.6 8 3.7 12.3 2.8l10.3-2.2c0.5-0.1 1.1 0 1.6 0.2 1.8 0.9 2.2 3.7 0.7 5.1l-12 11.6c-1.9 1.8-4.5 2.2-6.7 1l-5.6-3-28.4-15.6 3.3 18.7c0.1 0.8-0.4 1.5-1.1 1.4h-1.3c-1.8-0.1-3.5-1.3-4.4-3.1l-11.5-25.2-33.4-18.5c-4.5-2.4-6.1-6.8-3.8-10.2z"/>
				</g>
			</g>
			<g id="Layer">
				<g id="Layer">
					<g id="Layer">
						<path id="Layer" class="s1" d="m481.8 298.3l-93.9-27.4 18.8-86.2 93.9 27.4z"/>
					</g>
					<g id="Layer">
						<path id="Layer" class="s2" d="m495.7 234.7l-93.9-27.4 4.9-22.6 93.9 27.4z"/>
					</g>
					<g id="Layer">
						<g id="Layer">
							<path id="Layer" class="s0" d="m415 231.7c0-0.1 0.1-0.5 0.2-1.2q0.3-1.3 0.6-3.2c0.6-2.8 1.4-6.6 2.3-11.2l0.2 0.3c-3.9-1.1-8.5-2.4-13.4-3.8-0.1 0 0.7-0.5 0.4-0.3v0.1 0.1l-0.1 0.1v0.3l-0.2 0.5-0.2 1c-0.1 0.7-0.3 1.4-0.4 2.1q-0.5 2.1-0.9 4-0.9 3.9-1.6 7.4l-0.2-0.4c3.9 1.2 7.2 2.2 9.6 3q1.6 0.5 2.7 0.8 1 0.3 1 0.4c0 0-0.3-0.1-0.9-0.2q-1.1-0.3-2.7-0.7c-2.4-0.6-5.8-1.6-9.9-2.7l-0.3-0.1 0.1-0.3q0.7-3.4 1.6-7.4 0.4-1.9 0.8-4c0.2-0.7 0.3-1.4 0.5-2.1l0.2-1 0.2-0.5v-0.3l0.1-0.1v-0.1-0.1c-0.4 0.3 0.4-0.3 0.3-0.2 4.9 1.4 9.5 2.8 13.4 4h0.3l-0.1 0.4c-1 4.7-2 8.6-2.6 11.3q-0.4 1.9-0.7 3.1c-0.2 0.7-0.3 1-0.3 1z"/>
						</g>
					</g>
					<g id="Layer">
						<g id="Layer">
							<path id="Layer" class="s0" d="m432.6 236.8c0 0 0.1-0.4 0.2-1.2q0.2-1.2 0.6-3.2c0.6-2.7 1.4-6.6 2.3-11.2l0.2 0.4c-3.9-1.1-8.5-2.5-13.4-3.9-0.1 0.1 0.7-0.5 0.4-0.2v0.1l-0.1 0.1v0.3l-0.2 0.5-0.2 1.1c-0.2 0.7-0.3 1.4-0.5 2.1q-0.4 2-0.8 4-0.9 3.9-1.7 7.3l-0.1-0.4c3.9 1.2 7.2 2.2 9.6 3q1.6 0.5 2.7 0.8 1 0.3 1 0.4c0 0.1-0.3 0-0.9-0.2q-1.1-0.2-2.8-0.7c-2.3-0.6-5.7-1.5-9.8-2.7l-0.3-0.1 0.1-0.3q0.7-3.4 1.6-7.3 0.4-2 0.8-4c0.2-0.7 0.3-1.4 0.5-2.1l0.2-1.1 0.1-0.5 0.1-0.3v-0.1-0.1c-0.3 0.2 0.5-0.3 0.4-0.3 4.9 1.5 9.5 2.8 13.4 4l0.3 0.1-0.1 0.3c-1 4.7-2 8.6-2.6 11.3q-0.4 1.9-0.7 3.1c-0.2 0.7-0.3 1-0.3 1z"/>
						</g>
					</g>
					<g id="Layer">
						<g id="Layer">
							<path id="Layer" class="s0" d="m450.2 241.9c0 0 0.1-0.4 0.2-1.2q0.2-1.2 0.6-3.2c0.6-2.7 1.3-6.6 2.3-11.2l0.2 0.4c-3.9-1.1-8.5-2.4-13.4-3.9-0.1 0.1 0.7-0.4 0.3-0.2v0.1 0.2l-0.1 0.2-0.1 0.6-0.2 1c-0.2 0.7-0.3 1.4-0.5 2.1q-0.4 2-0.8 4-0.9 3.9-1.7 7.3l-0.2-0.3c4 1.2 7.3 2.2 9.7 2.9q1.6 0.6 2.7 0.9c0.6 0.2 1 0.3 1 0.3 0 0.1-0.3 0-1-0.2q-1-0.2-2.7-0.6c-2.3-0.7-5.7-1.6-9.8-2.8l-0.3-0.1 0.1-0.3q0.7-3.4 1.5-7.3 0.5-1.9 0.9-4c0.2-0.7 0.3-1.4 0.5-2.1l0.2-1 0.1-0.6 0.1-0.2v-0.2-0.1c-0.3 0.2 0.5-0.3 0.4-0.2 4.9 1.4 9.5 2.8 13.4 3.9l0.3 0.1-0.1 0.3c-1 4.7-2 8.6-2.6 11.3q-0.4 2-0.7 3.1c-0.2 0.7-0.3 1.1-0.3 1z"/>
						</g>
					</g>
					<g id="Layer">
						<g id="Layer">
							<path id="Layer" class="s0" d="m467.7 247.1c0-0.1 0.1-0.5 0.2-1.2q0.3-1.3 0.7-3.2c0.5-2.8 1.3-6.6 2.3-11.2l0.2 0.3c-4-1.1-8.6-2.4-13.5-3.8-0.1 0 0.7-0.5 0.4-0.3v0.1 0.1 0.1l-0.1 0.3-0.1 0.5-0.3 1c-0.1 0.7-0.3 1.4-0.4 2.1q-0.5 2.1-0.9 4-0.9 3.9-1.6 7.4l-0.2-0.4c3.9 1.2 7.3 2.2 9.6 3q1.7 0.5 2.7 0.8c0.7 0.2 1 0.3 1 0.4 0 0-0.3-0.1-0.9-0.2q-1.1-0.3-2.7-0.7c-2.4-0.6-5.8-1.6-9.9-2.8h-0.2v-0.3q0.8-3.4 1.6-7.4 0.4-1.9 0.9-4c0.1-0.7 0.3-1.4 0.4-2.1l0.2-1 0.2-0.5v-0.3l0.1-0.1v-0.1-0.1c-0.4 0.3 0.4-0.3 0.3-0.2 4.9 1.4 9.5 2.8 13.5 4h0.2l-0.1 0.3c-1 4.8-1.9 8.7-2.6 11.4q-0.4 1.9-0.7 3.1c-0.1 0.6-0.2 1-0.3 1z"/>
						</g>
					</g>
					<g id="Layer">
						<g id="Layer">
							<path id="Layer" class="s0" d="m485.3 252.2c0 0 0.1-0.5 0.2-1.2q0.3-1.2 0.6-3.2c0.6-2.8 1.4-6.6 2.3-11.2l0.2 0.4c-3.9-1.2-8.5-2.5-13.4-3.9-0.1 0 0.7-0.5 0.4-0.2v0.1l-0.1 0.1v0.3l-0.2 0.5-0.2 1.1c-0.1 0.7-0.3 1.4-0.4 2q-0.5 2.1-0.9 4.1-0.9 3.9-1.6 7.3l-0.2-0.4c3.9 1.2 7.2 2.2 9.6 3q1.6 0.5 2.7 0.9c0.7 0.1 1 0.3 1 0.3 0 0-0.3 0-0.9-0.2q-1.1-0.3-2.7-0.7c-2.4-0.6-5.8-1.6-9.9-2.7l-0.3-0.1 0.1-0.3q0.7-3.4 1.6-7.3 0.4-2 0.8-4.1c0.2-0.6 0.3-1.3 0.5-2l0.2-1.1 0.2-0.5v-0.3l0.1-0.1v-0.1c-0.4 0.2 0.4-0.4 0.3-0.3 4.9 1.5 9.5 2.8 13.4 4l0.3 0.1-0.1 0.3c-1 4.7-2 8.6-2.6 11.3q-0.4 1.9-0.7 3.1-0.2 1-0.3 1z"/>
						</g>
					</g>
					<g id="Layer">
						<g id="Layer">
							<path id="Layer" class="s0" d="m410.7 251.6c0 0 0-0.4 0.2-1.2q0.2-1.2 0.6-3.2c0.5-2.7 1.3-6.6 2.3-11.2l0.2 0.4c-3.9-1.1-8.5-2.4-13.4-3.9-0.1 0.1 0.6-0.4 0.3-0.2v0.1 0.2l-0.1 0.2-0.1 0.6-0.2 1c-0.2 0.7-0.3 1.4-0.5 2.1q-0.4 2-0.9 4-0.9 3.9-1.6 7.3l-0.2-0.3c4 1.1 7.3 2.2 9.6 2.9q1.7 0.6 2.8 0.9 0.9 0.3 1 0.3c0 0.1-0.3 0-1-0.2q-1-0.2-2.7-0.6c-2.3-0.7-5.8-1.6-9.9-2.8l-0.2-0.1 0.1-0.3q0.7-3.4 1.5-7.3 0.5-1.9 0.9-4c0.2-0.7 0.3-1.4 0.4-2.1l0.3-1 0.1-0.6 0.1-0.2v-0.2-0.1c-0.3 0.2 0.5-0.3 0.4-0.2 4.9 1.4 9.4 2.8 13.4 3.9l0.2 0.1v0.3c-1.1 4.7-2 8.6-2.6 11.3q-0.5 2-0.8 3.1-0.2 1.1-0.2 1z"/>
						</g>
					</g>
					<g id="Layer">
						<g id="Layer">
							<path id="Layer" class="s0" d="m428.3 256.8c0 0 0-0.5 0.1-1.2q0.3-1.2 0.7-3.2c0.5-2.8 1.3-6.6 2.3-11.2l0.2 0.4c-4-1.2-8.5-2.5-13.5-3.9-0.1 0 0.7-0.5 0.4-0.2v0.1 0.1l-0.1 0.3-0.1 0.5-0.3 1c-0.1 0.8-0.2 1.5-0.4 2.1q-0.4 2.1-0.9 4-0.9 4-1.6 7.4l-0.2-0.4c4 1.2 7.3 2.2 9.6 3q1.7 0.5 2.7 0.8 1 0.3 1.1 0.4c0 0-0.3-0.1-1-0.2q-1.1-0.3-2.7-0.7c-2.4-0.6-5.8-1.6-9.9-2.7l-0.2-0.1v-0.3q0.8-3.4 1.6-7.3 0.4-2 0.9-4.1c0.1-0.6 0.3-1.3 0.4-2l0.3-1.1 0.1-0.5 0.1-0.3v-0.1-0.1c-0.3 0.2 0.4-0.4 0.3-0.3 4.9 1.5 9.5 2.8 13.5 4l0.2 0.1v0.3c-1.1 4.7-2 8.6-2.6 11.3q-0.5 1.9-0.8 3.1c-0.1 0.6-0.2 1-0.2 1z"/>
						</g>
					</g>
					<g id="Layer">
						<g id="Layer">
							<path id="Layer" class="s0" d="m445.8 261.9c0 0 0.1-0.4 0.2-1.2q0.3-1.2 0.6-3.2c0.6-2.7 1.4-6.6 2.4-11.2l0.2 0.4c-4-1.1-8.6-2.5-13.5-3.9-0.1 0.1 0.7-0.4 0.4-0.2v0.1 0.1l-0.1 0.3-0.1 0.5-0.3 1.1c-0.1 0.7-0.3 1.4-0.4 2.1q-0.5 2-0.9 4-0.9 3.9-1.6 7.3l-0.2-0.4c3.9 1.2 7.3 2.3 9.6 3q1.7 0.5 2.7 0.9c0.6 0.2 1 0.3 1 0.3q0.1 0.1-0.9-0.2-1.1-0.2-2.7-0.7c-2.4-0.6-5.8-1.5-9.9-2.7l-0.2-0.1v-0.3q0.8-3.4 1.6-7.3 0.4-2 0.9-4c0.1-0.7 0.3-1.4 0.4-2.1l0.2-1.1 0.2-0.5v-0.3l0.1-0.1v-0.1c-0.4 0.2 0.4-0.3 0.3-0.3 4.9 1.5 9.5 2.9 13.4 4l0.3 0.1-0.1 0.3c-1 4.7-1.9 8.6-2.6 11.3q-0.4 1.9-0.7 3.1c-0.2 0.7-0.3 1.1-0.3 1z"/>
						</g>
					</g>
					<g id="Layer">
						<g id="Layer">
							<path id="Layer" class="s0" d="m463.4 267c0 0 0.1-0.4 0.2-1.2q0.2-1.2 0.6-3.2c0.6-2.7 1.3-6.6 2.3-11.2l0.2 0.4c-3.9-1.1-8.5-2.4-13.4-3.9-0.1 0.1 0.7-0.4 0.3-0.2v0.1 0.2l-0.1 0.2-0.1 0.5-0.2 1.1c-0.2 0.7-0.3 1.4-0.5 2.1q-0.4 2-0.9 4-0.8 3.9-1.6 7.3l-0.2-0.3c4 1.2 7.3 2.2 9.6 2.9q1.7 0.6 2.8 0.9c0.6 0.2 1 0.3 1 0.3 0 0.1-0.3 0-1-0.2q-1-0.2-2.7-0.7c-2.3-0.6-5.7-1.5-9.8-2.7l-0.3-0.1 0.1-0.3q0.7-3.4 1.5-7.3 0.5-1.9 0.9-4c0.2-0.7 0.3-1.4 0.5-2.1l0.2-1 0.1-0.6 0.1-0.2v-0.2-0.1c-0.3 0.2 0.5-0.3 0.4-0.2 4.9 1.4 9.5 2.8 13.4 3.9l0.3 0.1-0.1 0.3c-1 4.7-2 8.7-2.6 11.3q-0.5 2-0.8 3.1c-0.1 0.7-0.2 1.1-0.2 1z"/>
						</g>
					</g>
					<g id="Layer">
						<g id="Layer">
							<path id="Layer" class="s0" d="m481 272.2c0-0.1 0-0.5 0.2-1.2q0.2-1.3 0.6-3.2c0.5-2.8 1.3-6.6 2.3-11.2l0.2 0.3c-3.9-1.1-8.5-2.4-13.4-3.8-0.1 0 0.6-0.5 0.3-0.3v0.1 0.1 0.1l-0.1 0.3-0.1 0.5-0.2 1c-0.2 0.7-0.3 1.4-0.5 2.1q-0.4 2.1-0.9 4-0.9 3.9-1.6 7.4l-0.2-0.4c4 1.2 7.3 2.2 9.6 3q1.7 0.5 2.8 0.8c0.6 0.2 1 0.3 1 0.4 0 0-0.3-0.1-1-0.2q-1-0.3-2.7-0.7c-2.3-0.6-5.8-1.6-9.9-2.7l-0.2-0.1 0.1-0.3q0.7-3.4 1.5-7.4 0.5-1.9 0.9-4c0.2-0.7 0.3-1.4 0.4-2.1l0.3-1 0.1-0.5 0.1-0.3v-0.1-0.1-0.1c-0.3 0.3 0.5-0.3 0.4-0.2 4.9 1.4 9.4 2.8 13.4 4h0.2v0.4c-1.1 4.7-2 8.6-2.6 11.3q-0.5 1.9-0.8 3.1c-0.1 0.6-0.2 1-0.2 1z"/>
						</g>
					</g>
					<g id="Layer">
						<path id="Layer" class="s0" d="m406.6 270.3l-13.4-3.9 3.4-15.5 13.4 3.9z"/>
					</g>
					<g id="Layer">
						<g id="Layer">
							<path id="Layer" class="s0" d="m424.2 275.4c0 0 0.1-0.4 0.2-1.2q0.2-1.2 0.6-3.2c0.6-2.7 1.3-6.6 2.3-11.2l0.2 0.4c-3.9-1.1-8.5-2.4-13.4-3.9-0.1 0.1 0.7-0.4 0.3-0.2v0.1 0.1l-0.1 0.3-0.1 0.5-0.2 1.1c-0.2 0.7-0.3 1.4-0.5 2.1q-0.4 2-0.8 4-0.9 3.9-1.7 7.3l-0.2-0.4c4 1.2 7.3 2.3 9.7 3q1.6 0.5 2.7 0.9 0.9 0.3 1 0.3c0 0.1-0.3 0-1-0.2q-1-0.2-2.7-0.7c-2.3-0.6-5.7-1.5-9.8-2.7l-0.3-0.1 0.1-0.3q0.7-3.4 1.5-7.3 0.5-2 0.9-4c0.2-0.7 0.3-1.4 0.5-2.1l0.2-1 0.1-0.6 0.1-0.3v-0.1-0.1c-0.3 0.2 0.5-0.3 0.4-0.3 4.9 1.5 9.5 2.9 13.4 4l0.3 0.1-0.1 0.3c-1 4.7-2 8.6-2.6 11.3q-0.4 1.9-0.7 3.1-0.3 1.1-0.3 1z"/>
						</g>
					</g>
					<g id="Layer">
						<g id="Layer">
							<path id="Layer" class="s0" d="m441.8 280.6c0-0.1 0-0.5 0.2-1.3q0.2-1.2 0.6-3.2c0.5-2.7 1.3-6.6 2.3-11.2l0.2 0.4c-3.9-1.1-8.5-2.4-13.4-3.9-0.1 0.1 0.6-0.4 0.3-0.2v0.1 0.2l-0.1 0.2-0.1 0.5-0.2 1.1c-0.2 0.7-0.3 1.4-0.5 2.1q-0.4 2-0.9 4-0.9 3.9-1.6 7.3l-0.2-0.4c4 1.2 7.3 2.3 9.6 3q1.7 0.6 2.8 0.9c0.6 0.2 0.9 0.3 1 0.3 0 0.1-0.3 0-1-0.2q-1-0.2-2.7-0.7c-2.3-0.6-5.8-1.5-9.8-2.7l-0.3-0.1 0.1-0.3q0.7-3.4 1.5-7.3 0.5-1.9 0.9-4c0.2-0.7 0.3-1.4 0.4-2.1l0.3-1 0.1-0.6 0.1-0.2v-0.2-0.1c-0.3 0.2 0.5-0.3 0.4-0.2 4.9 1.4 9.5 2.8 13.4 3.9l0.2 0.1v0.3c-1.1 4.8-2 8.6-2.6 11.3q-0.5 1.9-0.8 3.1-0.2 1.1-0.2 1z"/>
						</g>
					</g>
					<g id="Layer">
						<g id="Layer">
							<path id="Layer" class="s0" d="m459.3 285.7c0-0.1 0.1-0.5 0.2-1.2q0.3-1.3 0.6-3.2c0.6-2.8 1.4-6.6 2.3-11.2l0.2 0.3c-3.9-1.1-8.5-2.4-13.4-3.8-0.1 0 0.7-0.5 0.4-0.3v0.1 0.1l-0.1 0.1v0.3l-0.2 0.5-0.2 1c-0.1 0.7-0.3 1.4-0.4 2.1q-0.5 2-0.9 4-0.9 3.9-1.6 7.4l-0.2-0.4c3.9 1.1 7.2 2.2 9.6 2.9q1.6 0.6 2.7 0.9c0.7 0.2 1 0.4 1 0.4 0 0-0.3-0.1-0.9-0.2q-1.1-0.3-2.7-0.7c-2.4-0.7-5.8-1.6-9.9-2.8h-0.3l0.1-0.3q0.7-3.4 1.6-7.4 0.4-1.9 0.8-4c0.2-0.7 0.3-1.4 0.5-2.1l0.2-1 0.2-0.5v-0.3l0.1-0.1v-0.1-0.1c-0.4 0.3 0.4-0.3 0.3-0.2 4.9 1.4 9.5 2.8 13.4 4h0.3l-0.1 0.4c-1 4.7-2 8.6-2.6 11.3q-0.4 1.9-0.7 3.1-0.2 1-0.3 1z"/>
						</g>
					</g>
					<g id="Layer">
						<g id="Layer">
							<path id="Layer" class="s0" d="m476.9 290.8c0 0 0.1-0.5 0.2-1.2q0.2-1.2 0.6-3.2c0.6-2.8 1.4-6.6 2.3-11.2l0.2 0.4c-3.9-1.2-8.5-2.5-13.4-3.9-0.1 0 0.7-0.5 0.4-0.3v0.1 0.1l-0.1 0.1v0.3l-0.2 0.5-0.2 1c-0.2 0.7-0.3 1.4-0.5 2.1q-0.4 2.1-0.8 4-0.9 4-1.7 7.4l-0.2-0.4c4 1.2 7.3 2.2 9.7 3q1.6 0.5 2.7 0.8c0.6 0.3 1 0.4 1 0.4 0 0-0.3-0.1-0.9-0.2q-1.1-0.3-2.8-0.7c-2.3-0.6-5.7-1.6-9.8-2.7l-0.3-0.1 0.1-0.3q0.7-3.4 1.6-7.3 0.4-2 0.8-4.1c0.2-0.6 0.3-1.3 0.5-2l0.2-1.1 0.1-0.5 0.1-0.3v-0.1-0.1c-0.3 0.2 0.5-0.4 0.4-0.3 4.9 1.5 9.5 2.8 13.4 4l0.3 0.1-0.1 0.3c-1 4.7-2 8.6-2.6 11.3q-0.4 1.9-0.7 3.1c-0.2 0.7-0.3 1.1-0.3 1z"/>
						</g>
					</g>
					<g id="Layer">
						<path id="Layer" class="s0" d="m425.3 197.7l-1.3-0.3c-0.8-0.3-1.2-1.2-1-2.1l2.4-11c0.2-0.9 1-1.4 1.7-1.2l1.3 0.4c0.8 0.2 1.3 1.1 1.1 2l-2.4 11c-0.2 0.9-1 1.5-1.8 1.2z"/>
					</g>
					<g id="Layer">
						<path id="Layer" class="s0" d="m452.3 205.6l-1.3-0.4c-0.8-0.2-1.3-1.1-1.1-2l2.4-11c0.2-0.9 1-1.4 1.8-1.2l1.3 0.4c0.8 0.2 1.3 1.1 1.1 2l-2.4 11c-0.2 0.9-1 1.4-1.8 1.2z"/>
					</g>
					<g id="Layer">
						<path id="Layer" class="s0" d="m479.3 213.5l-1.3-0.4c-0.8-0.2-1.3-1.2-1.1-2l2.4-11c0.2-0.9 1-1.5 1.8-1.2l1.3 0.3c0.8 0.3 1.3 1.2 1.1 2.1l-2.4 10.9c-0.2 1-1 1.5-1.8 1.3z"/>
					</g>
				</g>
				<g id="Layer">
					<g id="Layer">
						<path id="Layer" class="s0" d="m481.5 299.9c0 0 0.1-0.6 0.3-1.7q0.3-1.6 1-4.7c0.9-4.1 2.2-10.1 3.8-17.8 3.3-15.3 8-37.3 13.7-63.7l0.2 0.4c-26.8-7.9-59.1-17.3-93.9-27.4l0.4-0.2c-6.9 31.7-13.5 61.7-19.2 87.8l-0.2-0.4c27.9 8.2 51.3 15.1 67.8 19.9 8.2 2.5 14.7 4.4 19.2 5.7 2.2 0.7 3.9 1.2 5.1 1.5 0.6 0.2 1 0.3 1.3 0.4q0.4 0.2 0.5 0.2 0 0-0.5-0.1c-0.3-0.1-0.7-0.3-1.3-0.4q-1.7-0.5-5-1.4c-4.5-1.3-11-3.2-19.2-5.5-16.6-4.8-40.1-11.6-68-19.7l-0.3-0.1 0.1-0.3c5.7-26.1 12.2-56 19.1-87.8v-0.3l0.3 0.1c34.8 10.1 67.1 19.6 93.9 27.4l0.3 0.1-0.1 0.3c-5.8 26.5-10.6 48.4-14 63.8-1.7 7.6-3 13.6-3.9 17.7q-0.7 3-1.1 4.6-0.3 1.6-0.3 1.6z"/>
					</g>
				</g>
			</g>
			<g id="Layer">
				<g id="Layer">
					<g id="Layer">
						<path id="Layer" class="s0" d="m14.7 121.6h19.1v69.3h-19.1z"/>
					</g>
					<g id="Layer">
						<path id="Layer" class="s0" d="m43.3 137.4h19.2v53.4h-19.2z"/>
					</g>
					<g id="Layer">
						<path id="Layer" class="s0" d="m69.8 159.1h19.2v31.8h-19.2z"/>
					</g>
				</g>
				<g id="Layer">
					<g id="Layer">
						<path id="Layer" class="s0" d="m103.6 204.4q0 0.1-0.5 0.1-0.5 0-1.5 0-1.9 0-5.6 0.1c-4.9 0-12 0-20.7 0.1-17.5 0-41.6 0-68.3 0.1-1.6 0-3.3 0-4.8 0h-0.3v-0.3c0-29.6 0.1-56.1 0.1-75.3 0-9.5 0-17.2 0-22.6q0.1-4 0.1-6.1c0-0.7 0-1.2 0-1.6 0-0.4 0-0.6 0-0.6 0 0 0.1 0.2 0.1 0.6q0 0.5 0 1.6c0 1.4 0 3.5 0 6.1 0.1 5.4 0.1 13.1 0.1 22.6 0 19.2 0 45.7 0.1 75.3l-0.3-0.3c1.5 0 3.2 0 4.8 0 26.7 0 50.8 0 68.3 0.1 8.7 0 15.8 0 20.7 0.1q3.7 0 5.6 0 1 0 1.5 0 0.6 0 0.6 0z"/>
					</g>
				</g>
			</g>
			<g id="Layer">
				<g id="Layer">
					<g id="Layer">
						<g id="Layer">
							<path id="Layer" class="s3" d="m183 424.9c4.3 23.6-8.9 46.9-29.4 51.9-20.5 4.9-40.7-10.3-45-34-4.2-23.7 9-46.9 29.5-51.9 20.5-4.9 40.6 10.3 44.9 34z"/>
						</g>
					</g>
					<g id="Layer">
						<g id="Layer">
							<path id="Layer" class="s2" d="m174.2 427c3.2 18.1-6.8 35.8-22.5 39.6-15.6 3.7-30.9-7.9-34.2-25.9-3.3-18.1 6.8-35.8 22.4-39.5 15.7-3.8 31 7.8 34.3 25.8z"/>
						</g>
					</g>
					<g id="Layer">
						<g id="Layer">
							<g id="Layer">
								<path id="Layer" class="s0" d="m174 426c-0.2 0-0.6-1.4-1.5-3.8-0.9-2.3-2.4-5.8-5.1-9.2-1.3-1.8-2.9-3.5-4.8-5.1-1.9-1.6-4.1-3-6.6-4q-1.8-0.9-3.8-1.4c-1.3-0.3-2.7-0.6-4.1-0.7-1.5-0.1-2.9-0.1-4.4 0q-2.1 0.2-4.4 0.8-2.2 0.7-4.2 1.6c-1.4 0.7-2.7 1.5-3.9 2.3-1.2 0.9-2.3 1.8-3.4 2.8-1.1 1-2 2.1-2.9 3.3-1.8 2.2-3.2 4.6-4.2 7-1.1 2.4-1.8 4.8-2.3 7.1-1 4.5-1 8.3-0.9 10.9 0.1 2.6 0.4 4.1 0.2 4.1-0.1 0.1-0.6-1.3-1-4-0.4-2.6-0.7-6.6 0.2-11.4 0.4-2.4 1.1-5 2.1-7.6 1.1-2.5 2.6-5.2 4.4-7.7 0.9-1.2 1.9-2.4 3.1-3.5 1.1-1.1 2.3-2.2 3.6-3.1 1.3-0.9 2.7-1.8 4.2-2.5q2.2-1 4.5-1.7 2.4-0.7 4.8-0.9 2.4-0.2 4.7 0c1.5 0.1 3 0.4 4.4 0.8 1.4 0.4 2.8 1 4.1 1.6 2.6 1.2 5 2.8 6.9 4.5 2 1.8 3.6 3.7 5 5.6 2.6 3.8 4 7.5 4.7 10.1 0.6 2.5 0.7 4 0.6 4.1z"/>
							</g>
						</g>
					</g>
				</g>
				<g id="Layer">
					<g id="Layer">
						<g id="Layer">
							<g id="Layer">
								<path id="Layer" fill-rule="evenodd" class="s0" d="m152.6 452.6l1.1 5.7-4.4 1.1-1.1-5.5c-4.4 0.8-8.8 0.3-11.7-1.2l1.2-6.9c2.6 1.4 6 1.9 9.2 1.4l-1.6-8.4c-5.2-0.1-11-0.6-12.4-7.9-1-5.3 1.5-10.8 8.2-13.6l-1.1-5.6 4.4-1.2 1.1 5.6c3.3-0.6 6.7-0.4 9.5 0.8l-1 6.8c-2.5-0.9-5-1.2-7.2-0.9l1.7 8.6c5.1 0.1 10.8 0.6 12.2 7.7 1 5.3-1.4 10.8-8.1 13.5zm-8.8-21.3l-1.4-7.2c-2.2 1.2-2.8 2.9-2.5 4.6 0.3 1.8 1.9 2.4 3.9 2.6zm10 10.3c-0.4-1.8-1.9-2.4-3.9-2.7l1.4 7c2.1-1.1 2.8-2.7 2.5-4.3z"/>
							</g>
						</g>
					</g>
				</g>
			</g>
			<g id="Layer">
				<g id="Layer">
					<g id="Layer">
						<g id="Layer">
							<path id="Layer" class="s3" d="m177.1 228.3c2.7 14.8-5.6 29.4-18.4 32.5-12.9 3.1-25.5-6.4-28.2-21.2-2.7-14.9 5.6-29.4 18.4-32.5 12.9-3.2 25.5 6.4 28.2 21.2z"/>
						</g>
					</g>
					<g id="Layer">
						<g id="Layer">
							<path id="Layer" class="s2" d="m171.6 229.7c2 11.3-4.3 22.3-14.1 24.7-9.8 2.4-19.4-4.9-21.4-16.2-2.1-11.3 4.2-22.4 14-24.7 9.8-2.4 19.4 4.8 21.5 16.2z"/>
						</g>
					</g>
					<g id="Layer">
						<g id="Layer">
							<g id="Layer">
								<path id="Layer" class="s0" d="m171.4 229c-0.1 0-0.3-0.9-0.9-2.4-0.6-1.4-1.5-3.6-3.2-5.7-0.8-1.1-1.8-2.2-3-3.2-1.2-1-2.5-1.9-4.1-2.5-0.8-0.4-1.5-0.7-2.4-0.9-0.8-0.2-1.7-0.4-2.6-0.5q-1.3-0.1-2.7 0c-0.9 0.1-1.9 0.3-2.8 0.5-0.9 0.3-1.8 0.6-2.6 1-0.9 0.5-1.7 1-2.4 1.5-0.8 0.5-1.5 1.1-2.2 1.7-0.6 0.7-1.3 1.4-1.8 2.1-1.1 1.4-2 2.9-2.6 4.4-0.7 1.5-1.2 3-1.5 4.4-0.6 2.8-0.6 5.2-0.5 6.8 0.1 1.6 0.2 2.6 0.1 2.6-0.1 0-0.4-0.9-0.6-2.5-0.3-1.6-0.5-4.1 0.1-7.2 0.2-1.4 0.7-3 1.4-4.7 0.6-1.6 1.5-3.3 2.7-4.8 0.6-0.8 1.2-1.6 1.9-2.2q1.1-1.1 2.3-2c0.8-0.6 1.7-1.1 2.6-1.5 0.9-0.5 1.9-0.8 2.8-1.1 1-0.3 2-0.5 3-0.6 1-0.1 2-0.1 3 0 0.9 0.1 1.8 0.3 2.7 0.6q1.4 0.4 2.6 0.9c1.6 0.8 3.1 1.8 4.3 2.9 1.3 1.1 2.3 2.3 3.1 3.5 1.7 2.4 2.5 4.7 2.9 6.3 0.5 1.7 0.5 2.6 0.4 2.6z"/>
							</g>
						</g>
					</g>
				</g>
				<g id="Layer">
					<g id="Layer">
						<g id="Layer">
							<g id="Layer">
								<path id="Layer" fill-rule="evenodd" class="s0" d="m158 245.7l0.7 3.6-2.7 0.7-0.7-3.5c-2.7 0.5-5.5 0.2-7.3-0.8l0.7-4.3c1.6 0.9 3.8 1.2 5.8 0.9l-1-5.3c-3.3-0.1-6.9-0.4-7.8-4.9-0.6-3.4 0.9-6.8 5.2-8.5l-0.7-3.6 2.7-0.7 0.7 3.5c2.1-0.4 4.3-0.2 6 0.5l-0.6 4.3c-1.6-0.6-3.2-0.8-4.6-0.6l1.1 5.4c3.2 0 6.8 0.3 7.6 4.8 0.7 3.4-0.9 6.8-5.1 8.5zm-5.4-13.4l-0.9-4.5c-1.4 0.8-1.8 1.8-1.6 2.9 0.2 1.1 1.2 1.5 2.5 1.6zm6.2 6.5c-0.2-1.1-1.1-1.5-2.4-1.7l0.8 4.4c1.3-0.7 1.8-1.7 1.6-2.7z"/>
							</g>
						</g>
					</g>
				</g>
			</g>
			<g id="Layer">
				<g id="Layer">
					<g id="Layer">
						<g id="Layer">
							<path id="Layer" class="s3" d="m646.9 133.2c4.3 23.9-9 47.4-29.7 52.5-20.8 5-41.1-10.4-45.5-34.3-4.3-24 9-47.5 29.8-52.5 20.7-5 41.1 10.3 45.4 34.3z"/>
						</g>
					</g>
					<g id="Layer">
						<g id="Layer">
							<path id="Layer" class="s2" d="m637.9 135.3c3.4 18.3-6.8 36.2-22.6 40-15.9 3.8-31.4-7.9-34.7-26.1-3.3-18.3 6.9-36.2 22.7-40 15.9-3.8 31.4 7.9 34.6 26.1z"/>
						</g>
					</g>
					<g id="Layer">
						<g id="Layer">
							<g id="Layer">
								<path id="Layer" class="s0" d="m637.7 134.3c-0.1 0-0.5-1.4-1.4-3.8-1-2.4-2.5-5.9-5.2-9.4-1.3-1.7-2.9-3.5-4.8-5.1-1.9-1.5-4.2-3-6.7-4.1-1.2-0.5-2.5-1-3.9-1.3-1.3-0.4-2.7-0.6-4.1-0.7-1.5-0.1-2.9-0.2-4.4 0-1.5 0.1-3 0.4-4.5 0.8q-2.2 0.7-4.3 1.6c-1.3 0.7-2.6 1.5-3.9 2.3-1.2 0.9-2.3 1.9-3.4 2.9q-1.6 1.5-2.9 3.3c-1.8 2.2-3.2 4.7-4.3 7.1-1.1 2.5-1.8 4.9-2.3 7.1-1 4.6-1 8.4-0.9 11.1 0.1 2.6 0.4 4.1 0.2 4.1-0.1 0.1-0.6-1.3-1.1-4-0.4-2.7-0.6-6.7 0.2-11.6 0.4-2.4 1.2-5 2.2-7.6 1.1-2.6 2.5-5.3 4.4-7.8 1-1.3 2-2.5 3.1-3.6 1.1-1.1 2.4-2.2 3.7-3.1q2-1.4 4.2-2.5 2.2-1.1 4.6-1.8c1.6-0.4 3.2-0.7 4.8-0.9q2.4-0.2 4.7 0c1.6 0.2 3.1 0.5 4.6 0.9 1.4 0.4 2.8 0.9 4.1 1.5 2.7 1.3 5 2.9 7 4.6 2 1.8 3.7 3.8 5 5.7 2.6 3.9 4 7.6 4.7 10.2 0.7 2.5 0.8 4.1 0.6 4.1z"/>
							</g>
						</g>
					</g>
				</g>
				<g id="Layer">
					<g id="Layer">
						<g id="Layer">
							<g id="Layer">
								<path id="Layer" fill-rule="evenodd" class="s0" d="m616.1 161.3l1.1 5.7-4.4 1.1-1.1-5.6c-4.4 0.9-9 0.4-11.8-1.2l1.2-6.9c2.6 1.3 6 1.9 9.3 1.4l-1.6-8.6c-5.2-0.1-11.1-0.5-12.6-7.9-1-5.4 1.5-11 8.3-13.7l-1.1-5.7 4.5-1.2 1.1 5.6c3.3-0.5 6.8-0.4 9.6 0.8l-1 6.9c-2.6-0.9-5.1-1.2-7.3-0.9l1.6 8.7c5.2 0.1 11 0.6 12.4 7.8 1.1 5.3-1.4 10.9-8.2 13.6zm-8.8-21.5l-1.4-7.3c-2.3 1.2-2.9 2.9-2.6 4.6 0.4 1.8 1.9 2.5 4 2.7zm10 10.4c-0.4-1.8-1.8-2.5-3.9-2.7l1.4 7.1c2.1-1.2 2.8-2.8 2.5-4.4z"/>
							</g>
						</g>
					</g>
				</g>
			</g>
			<g id="Layer">
				<g id="Layer">
					<path id="Layer" class="s0" d="m506 490.6l-56-6.2c-1.8-0.2-3-1.8-2.8-3.6l9.7-101.3c0.2-2.6 2.4-4.5 4.8-4.2l53.4 5.9c2.5 0.3 4.2 2.6 4 5.2l-9.7 101.3c-0.2 1.8-1.7 3.1-3.4 2.9z"/>
				</g>
				<g id="Layer">
					<g id="Layer">
						<g id="Layer">
							<path id="Layer" class="s3" d="m500.3 490l-56-6.2c-1.7-0.2-2.9-1.8-2.8-3.7l9.7-101.2c0.3-2.6 2.4-4.5 4.9-4.2l53.4 5.9c2.4 0.3 4.2 2.6 3.9 5.2l-9.7 101.3c-0.1 1.8-1.7 3.1-3.4 2.9z"/>
						</g>
					</g>
					<g id="Layer">
						<g id="Layer">
							<path id="Layer" class="s0" d="m469.4 472.3l-16.4-1.8c-1.3-0.2-2.2-1.4-2.1-2.8l0.5-5c0.2-1.4 1.3-2.4 2.6-2.2l16.3 1.8c1.3 0.1 2.2 1.4 2.1 2.8l-0.5 4.9c-0.1 1.4-1.2 2.4-2.5 2.2z"/>
						</g>
					</g>
					<g id="Layer">
						<g id="Layer">
							<g id="Layer">
								<path id="Layer" class="s4" d="m506.2 414.3l-53.2-5.9 2.1-22.5 53.2 6z"/>
							</g>
						</g>
						<g id="Layer">
							<g id="Layer">
								<g id="Layer">
									<path id="Layer" class="s0" d="m506.2 414.3q-0.1 0 0-0.4 0-0.4 0.1-1.2 0.1-1.5 0.4-4.4c0.4-3.9 0.9-9.5 1.5-16.4h0.1c-13.4-1.4-32.3-3.5-53.2-5.8l0.1-0.1c-0.8 7.8-1.5 15.4-2.1 22.4l-0.1-0.1c15.4 1.8 28.6 3.2 38.1 4.3 4.7 0.5 8.5 1 11.1 1.3q1.9 0.2 2.9 0.3 0.5 0.1 0.8 0.1c0.2-0.1 0.3 0 0.3 0q-0.1 0-0.3 0-0.3-0.1-0.8-0.1-1-0.1-2.9-0.3c-2.6-0.3-6.3-0.7-11.1-1.2-9.4-1.1-22.7-2.5-38.1-4.2h-0.1v-0.1c0.6-7 1.4-14.6 2.1-22.4v-0.1h0.1c20.9 2.3 39.8 4.4 53.2 5.9v0.1c-0.7 6.9-1.2 12.5-1.6 16.4-0.2 1.9-0.3 3.4-0.4 4.5q-0.1 0.7-0.2 1.1c0.1 0.2 0.1 0.4 0.1 0.4z"/>
								</g>
							</g>
						</g>
					</g>
					<g id="Layer">
						<g id="Layer">
							<g id="Layer">
								<rect id="Layer" class="s0" x="454.3" y="417.8" width="9.6" height="10.3" rx="3"></rect>
							</g>
						</g>
						<g id="Layer">
							<g id="Layer">
								<rect id="Layer" class="s2" x="452.9" y="417.7" width="9.6" height="10.3" rx="3"></rect>
							</g>
						</g>
						<g id="Layer">
							<g id="Layer">
								<path id="Layer" class="s1" d="m458.6 420.9l-0.4 4-0.9-0.1 0.3-3.3h-0.7v-0.8z"/>
							</g>
						</g>
					</g>
					<g id="Layer">
						<g id="Layer">
							<g id="Layer">
								<rect id="Layer" class="s0" x="467" y="419.2" width="9.6" height="10.3" rx="3"></rect>
							</g>
						</g>
						<g id="Layer">
							<g id="Layer">
								<rect id="Layer" class="s2" x="465.6" y="419.1" width="9.6" height="10.3" rx="3"></rect>
							</g>
						</g>
						<g id="Layer">
							<g id="Layer">
								<path id="Layer" class="s1" d="m472.3 425.7l-0.1 0.8-2.9-0.3 0.1-0.6 1.6-1.4c0.3-0.3 0.4-0.5 0.4-0.7q0.1-0.5-0.5-0.5c-0.3-0.1-0.6 0-0.8 0.3l-0.6-0.5c0.3-0.4 0.9-0.7 1.6-0.6 0.8 0.1 1.3 0.6 1.3 1.4-0.1 0.4-0.2 0.7-0.8 1.2l-0.9 0.7z"/>
							</g>
						</g>
					</g>
					<g id="Layer">
						<g id="Layer">
							<g id="Layer">
								<rect id="Layer" class="s0" x="480" y="420.7" width="9.6" height="10.3" rx="3"></rect>
							</g>
						</g>
						<g id="Layer">
							<g id="Layer">
								<rect id="Layer" class="s2" x="478.7" y="420.5" width="9.6" height="10.3" rx="3"></rect>
							</g>
						</g>
						<g id="Layer">
							<g id="Layer">
								<path id="Layer" class="s1" d="m485.3 426.7c0 0.7-0.6 1.2-1.7 1.1-0.5-0.1-1-0.3-1.4-0.6l0.5-0.7c0.2 0.3 0.6 0.5 1 0.5 0.4 0 0.7-0.1 0.7-0.5 0.1-0.3-0.1-0.5-0.6-0.5l-0.4-0.1 0.1-0.6 0.8-0.9-1.5-0.1v-0.8l2.7 0.3-0.1 0.6-1 1c0.7 0.2 1 0.7 0.9 1.3z"/>
							</g>
						</g>
					</g>
					<g id="Layer">
						<g id="Layer">
							<g id="Layer">
								<rect id="Layer" class="s0" x="493.1" y="422.1" width="9.6" height="10.3" rx="3"></rect>
							</g>
						</g>
						<g id="Layer">
							<g id="Layer">
								<rect id="Layer" class="s2" x="491.7" y="422" width="9.6" height="10.3" rx="3"></rect>
							</g>
						</g>
						<g id="Layer">
							<g id="Layer">
								<g id="Layer">
									<path id="Layer" class="s1" d="m498.5 427.4l-4-0.4v-0.4l4 0.4z"/>
								</g>
							</g>
							<g id="Layer">
								<g id="Layer">
									<path id="Layer" class="s1" d="m497.3 425.2c0 0.4-0.3 0.7-0.7 0.6-0.4-0.1-0.6-0.4-0.6-0.8 0-0.4 0.4-0.7 0.7-0.6 0.4 0.1 0.6 0.4 0.6 0.8z"/>
								</g>
							</g>
							<g id="Layer">
								<g id="Layer">
									<path id="Layer" class="s1" d="m497 429c-0.1 0.4-0.4 0.6-0.8 0.6-0.3-0.1-0.6-0.4-0.5-0.8 0-0.4 0.3-0.7 0.7-0.6 0.3 0 0.6 0.4 0.6 0.8z"/>
								</g>
							</g>
						</g>
					</g>
					<g id="Layer">
						<g id="Layer">
							<g id="Layer">
								<rect id="Layer" class="s0" x="453" y="432.1" width="9.6" height="10.3" rx="3"></rect>
							</g>
						</g>
						<g id="Layer">
							<g id="Layer">
								<rect id="Layer" class="s2" x="451.6" y="431.9" width="9.6" height="10.3" rx="3"></rect>
							</g>
						</g>
						<g id="Layer">
							<g id="Layer">
								<path id="Layer" class="s1" d="m458 438.4h-0.6l-0.1 0.8-0.8-0.1 0.1-0.8-2.1-0.3 0.1-0.6 2-2.4 0.9 0.1-1.8 2.3 1 0.1v-0.8l0.8 0.1v0.8l0.6 0.1z"/>
							</g>
						</g>
					</g>
					<g id="Layer">
						<g id="Layer">
							<g id="Layer">
								<rect id="Layer" class="s0" x="465.6" y="433.5" width="9.6" height="10.3" rx="3"></rect>
							</g>
						</g>
						<g id="Layer">
							<g id="Layer">
								<rect id="Layer" class="s2" x="464.2" y="433.3" width="9.6" height="10.3" rx="3"></rect>
							</g>
						</g>
						<g id="Layer">
							<g id="Layer">
								<path id="Layer" class="s1" d="m470.5 439.4c-0.1 0.7-0.6 1.3-1.7 1.2-0.5-0.1-1-0.3-1.4-0.6l0.4-0.7c0.3 0.2 0.7 0.4 1.1 0.4 0.4 0.1 0.7-0.1 0.7-0.4 0.1-0.3-0.1-0.6-0.8-0.6l-1-0.1 0.5-2.3 2.3 0.3-0.1 0.7-1.6-0.2-0.1 0.8h0.3c1.1 0.2 1.5 0.8 1.4 1.5z"/>
							</g>
						</g>
					</g>
					<g id="Layer">
						<g id="Layer">
							<g id="Layer">
								<rect id="Layer" class="s0" x="478.7" y="434.9" width="9.6" height="10.3" rx="3"></rect>
							</g>
						</g>
						<g id="Layer">
							<g id="Layer">
								<rect id="Layer" class="s2" x="477.3" y="434.8" width="9.6" height="10.3" rx="3"></rect>
							</g>
						</g>
						<g id="Layer">
							<g id="Layer">
								<path id="Layer" fill-rule="evenodd" class="s1" d="m483.8 440.9c0 0.8-0.7 1.2-1.5 1.1-1.1-0.1-1.7-0.8-1.5-2.1 0.1-1.4 1-2.1 2.1-2 0.4 0 0.8 0.2 1 0.4l-0.4 0.6q-0.3-0.2-0.6-0.3c-0.7 0-1.1 0.3-1.2 1.1 0.2-0.2 0.6-0.3 1-0.3 0.7 0.1 1.2 0.7 1.1 1.5zm-0.8-0.1c0-0.4-0.2-0.6-0.6-0.7-0.4 0-0.7 0.2-0.7 0.5 0 0.4 0.2 0.7 0.6 0.7 0.4 0.1 0.7-0.1 0.7-0.5z"/>
							</g>
						</g>
					</g>
					<g id="Layer">
						<g id="Layer">
							<g id="Layer">
								<rect id="Layer" class="s0" x="491.7" y="436.4" width="9.6" height="10.3" rx="3"></rect>
							</g>
						</g>
						<g id="Layer">
							<g id="Layer">
								<rect id="Layer" class="s2" x="490.4" y="436.2" width="9.6" height="10.3" rx="3"></rect>
							</g>
						</g>
						<g id="Layer">
							<g id="Layer">
								<g id="Layer">
									<path id="Layer" class="s1" d="m493.6 442.9l-0.2-0.3 3.2-2.7 0.2 0.3z"/>
								</g>
							</g>
							<g id="Layer">
								<g id="Layer">
									<path id="Layer" class="s1" d="m496.3 443.2l-2.6-3.4 0.3-0.2 2.5 3.4z"/>
								</g>
							</g>
						</g>
					</g>
					<g id="Layer">
						<g id="Layer">
							<g id="Layer">
								<rect id="Layer" class="s0" x="451.6" y="446.2" width="9.6" height="10.3" rx="3"></rect>
							</g>
						</g>
						<g id="Layer">
							<g id="Layer">
								<rect id="Layer" class="s2" x="450.2" y="446.1" width="9.6" height="10.3" rx="3"></rect>
							</g>
						</g>
						<g id="Layer">
							<g id="Layer">
								<path id="Layer" class="s1" d="m456.5 449.3l-0.1 0.6-1.7 3.3-1-0.1 1.7-3.1-1.2-0.2-0.1 0.7-0.8-0.1 0.1-1.4z"/>
							</g>
						</g>
					</g>
					<g id="Layer">
						<g id="Layer">
							<g id="Layer">
								<rect id="Layer" class="s0" x="464.3" y="447.6" width="9.6" height="10.3" rx="3"></rect>
							</g>
						</g>
						<g id="Layer">
							<g id="Layer">
								<rect id="Layer" class="s2" x="462.9" y="447.5" width="9.6" height="10.3" rx="3"></rect>
							</g>
						</g>
						<g id="Layer">
							<g id="Layer">
								<path id="Layer" fill-rule="evenodd" class="s1" d="m469.5 453.7c-0.1 0.7-0.8 1.1-1.8 1-0.9-0.1-1.5-0.6-1.4-1.4 0-0.4 0.3-0.7 0.6-0.9q-0.4-0.3-0.3-0.9c0-0.7 0.7-1.1 1.5-1 0.9 0.1 1.5 0.6 1.4 1.4-0.1 0.3-0.3 0.6-0.6 0.7q0.6 0.4 0.6 1.1zm-0.9-0.2c0-0.3-0.2-0.6-0.7-0.6-0.4-0.1-0.7 0.1-0.7 0.5 0 0.3 0.2 0.6 0.6 0.6 0.4 0.1 0.8-0.1 0.8-0.5zm-1.2-1.9c0 0.3 0.2 0.6 0.6 0.6 0.3 0.1 0.6-0.1 0.6-0.4 0-0.3-0.2-0.5-0.5-0.6-0.4 0-0.6 0.1-0.7 0.4z"/>
							</g>
						</g>
					</g>
					<g id="Layer">
						<g id="Layer">
							<g id="Layer">
								<rect id="Layer" class="s0" x="477.3" y="449.1" width="9.6" height="10.3" rx="3"></rect>
							</g>
						</g>
						<g id="Layer">
							<g id="Layer">
								<rect id="Layer" class="s2" x="475.9" y="448.9" width="9.6" height="10.3" rx="3"></rect>
							</g>
						</g>
						<g id="Layer">
							<g id="Layer">
								<path id="Layer" fill-rule="evenodd" class="s1" d="m482.5 454.1c-0.2 1.4-1 2.1-2.2 2-0.4-0.1-0.8-0.2-1-0.4l0.4-0.7q0.3 0.3 0.7 0.3c0.6 0.1 1.1-0.3 1.2-1-0.3 0.2-0.6 0.3-1 0.2-0.7-0.1-1.3-0.7-1.2-1.4 0.1-0.8 0.8-1.3 1.6-1.2 1 0.1 1.6 0.9 1.5 2.2zm-0.9-0.8c0-0.3-0.2-0.6-0.6-0.7-0.4 0-0.7 0.2-0.7 0.6 0 0.4 0.2 0.6 0.6 0.6 0.3 0.1 0.6-0.1 0.7-0.5z"/>
							</g>
						</g>
					</g>
					<g id="Layer">
						<g id="Layer">
							<g id="Layer">
								<rect id="Layer" class="s0" x="490.4" y="450.5" width="9.6" height="10.3" rx="3"></rect>
							</g>
						</g>
						<g id="Layer">
							<g id="Layer">
								<rect id="Layer" class="s2" x="489" y="450.3" width="9.6" height="10.3" rx="3"></rect>
							</g>
						</g>
						<g id="Layer">
							<g id="Layer">
								<g id="Layer">
									<path id="Layer" class="s1" d="m495.8 455.9l-4-0.4v-0.4l4 0.5z"/>
								</g>
							</g>
						</g>
					</g>
					<g id="Layer">
						<g id="Layer">
							<g id="Layer">
								<rect id="Layer" class="s0" x="476" y="463.3" width="9.6" height="10.3" rx="3"></rect>
							</g>
						</g>
						<g id="Layer">
							<g id="Layer">
								<rect id="Layer" class="s2" x="474.6" y="463.2" width="9.6" height="10.3" rx="3"></rect>
							</g>
						</g>
					</g>
					<g id="Layer">
						<g id="Layer">
							<g id="Layer">
								<rect id="Layer" class="s0" x="489" y="464.8" width="9.6" height="10.3" rx="3"></rect>
							</g>
						</g>
						<g id="Layer">
							<g id="Layer">
								<rect id="Layer" class="s2" x="487.6" y="464.6" width="9.6" height="10.3" rx="3"></rect>
							</g>
						</g>
						<g id="Layer">
							<g id="Layer">
								<g id="Layer">
									<g id="Layer">
										<path id="Layer" class="s1" d="m494.5 469.7l-4.1-0.5 0.1-0.4 4 0.5z"/>
									</g>
								</g>
							</g>
							<g id="Layer">
								<g id="Layer">
									<g id="Layer">
										<path id="Layer" class="s1" d="m494.3 471.3l-4-0.4v-0.4l4.1 0.4z"/>
									</g>
								</g>
							</g>
						</g>
					</g>
					<g id="Layer">
						<g id="Layer">
							<path id="Layer" class="s2" d="m467.6 472l-17-1.8c-1.3-0.2-2.3-1.4-2.2-2.9l0.5-4.8c0.1-1.4 1.3-2.5 2.7-2.3l17 1.9c1.3 0.1 2.3 1.4 2.1 2.8l-0.4 4.8c-0.2 1.5-1.4 2.5-2.7 2.3z"/>
						</g>
					</g>
					<g id="Layer">
						<g id="Layer">
							<path id="Layer" fill-rule="evenodd" class="s1" d="m458.8 465.9c0.1-1.4 0.8-2.1 1.8-2 0.9 0.1 1.5 1 1.4 2.3-0.1 1.3-0.9 2-1.8 1.9-0.9-0.1-1.6-0.9-1.4-2.2zm2.3 0.2c0.1-0.9-0.1-1.3-0.6-1.4-0.4 0-0.8 0.3-0.8 1.3-0.1 0.9 0.1 1.3 0.6 1.3 0.4 0.1 0.7-0.3 0.8-1.2z"/>
						</g>
					</g>
					<g id="Layer">
						<g id="Layer">
							<g id="Layer">
								<path id="Layer" class="s1" d="m479.3 470.5h-0.4l0.5-4.4 0.4 0.1z"/>
							</g>
						</g>
						<g id="Layer">
							<g id="Layer">
								<path id="Layer" class="s1" d="m481.4 468.7l-4.1-0.4 0.1-0.4 4 0.5z"/>
							</g>
						</g>
					</g>
				</g>
			</g>
			<g id="Layer">
				<g id="Layer">
					<path id="Layer" class="s5" d="m584.1 499.2c0 0.2-118.1 0.3-263.8 0.3-145.7 0-263.8-0.1-263.8-0.3 0-0.2 118.1-0.3 263.8-0.3 145.7 0 263.8 0.1 263.8 0.3z"/>
				</g>
			</g>
			<g id="Layer">
				<g id="Layer">
					<g id="Layer">
						<path id="Layer" class="s5" d="m365.9 99.8c8.9 8.9 13.6 23 12.1 36.5-0.7 6.5-2.6 13.9 0.9 19.2 3.4 5.1 10.6 5.4 13.9 10.7 3.8 6.2 0 15 1.2 22.5 1 7.1 7.2 12.6 13.5 12.1-7.6 6.4-16.7 10.4-26 11.3-2.2-3.7-4.4-7.3-6.6-11 2.5 3.9 1.5 9.7-1.2 13.4-2.8 3.6-6.9 5.4-11 6.7-19.3 5.9-40.9 0.5-56.5-14"/>
					</g>
					<g id="Layer">
						<path id="Layer" class="s5" d="m256.9 151.7c1.6-4.9 4.2-9.4 5.4-14.6 2.5-11-1.6-23.7 3.4-33.5 3.6-6.9 10.9-10 17.6-12 6.8-2 14.1-3.7 19.3-9 3.8-4 6.2-9.6 10-13.6 5.4-5.6 13.2-7.2 20.5-7.3 7.5-0.1 15.2 1.1 21.8 5.3 6.6 4.2 11.9 11.7 12.7 20.4 0.4 4.2-0.2 8.6 0.8 12.6 1 4.5 3.9 8.2 5.5 12.4 3.6 8.9 1 20.6-5.9 26.4l-54.7 74c-11 4.1-36.9-3.1-44.9-12.8-7.9-9.7-15.6-35.8-11.5-48.3z"/>
					</g>
					<g id="Layer">
						<g id="Layer">
							<g id="Layer">
								<path id="Layer" class="s6" d="m368.2 187.1c-3.3 29.5-22.7 33.8-22.7 33.8 0-0.1 0.1 4.3 0.3 15l-0.1 20.8c-1 8.2-3.7 16.1-9.8 18.5-31.1 12.4-42.7-24.6-42.7-24.6 0.1 0 0.2-0.1 0.3-0.1l-8.2-131.9c-0.3-5.4 3.1-10 7.7-10.8l47-15.3c15.1-2.4 25.7 18.9 27.1 36.5 1.5 19.5 2.8 43.4 1.1 58.1z"/>
							</g>
							<g id="Layer">
								<g id="Layer">
									<g id="Layer">
										<g id="Layer">
											<g id="Layer">
												<g id="Layer">
													<g id="Layer">
														<g id="Layer">
															<g id="Layer">
																<g id="Layer">
																	<g id="Layer">
																		<g id="Layer">
																			<g id="Layer">
																				<g id="Layer">
																					<g id="Layer">
																						<g id="Layer">
																							<g id="Layer">
																								<g id="Layer">
																									<g id="Layer">
																										<g id="Layer">
																											<g id="Layer">
																												<ellipse id="Layer" class="s5" cx="322.3" cy="156.3" rx="3.3" ry="3.6"/>
																											</g>
																										</g>
																									</g>
																								</g>
																							</g>
																						</g>
																					</g>
																				</g>
																			</g>
																		</g>
																	</g>
																</g>
																<g id="Layer">
																	<g id="Layer">
																		<g id="Layer">
																			<g id="Layer">
																				<g id="Layer">
																					<g id="Layer">
																						<g id="Layer">
																							<g id="Layer">
																								<g id="Layer">
																									<g id="Layer">
																										<g id="Layer">
																											<g id="Layer">
																												<ellipse id="Layer" class="s5" cx="356" cy="155" rx="3.3" ry="3.6"/>
																											</g>
																										</g>
																									</g>
																								</g>
																							</g>
																						</g>
																					</g>
																				</g>
																			</g>
																		</g>
																	</g>
																</g>
																<g id="Layer">
																	<g id="Layer">
																		<g id="Layer">
																			<g id="Layer">
																				<g id="Layer">
																					<g id="Layer">
																						<g id="Layer">
																							<g id="Layer">
																								<g id="Layer">
																									<g id="Layer">
																										<g id="Layer">
																											<g id="Layer">
																												<g id="Layer">
																													<path id="Layer" class="s5" d="m364.3 142c-0.4 0.7-3.4-1.7-7.2-1.3-3.8 0.4-6.3 3.3-6.8 2.7-0.2-0.2 0.1-1.4 1.3-2.7 1-1.4 3-2.7 5.3-3 2.4-0.2 4.5 0.8 5.8 1.8 1.2 1.2 1.8 2.2 1.6 2.5z"/>
																												</g>
																											</g>
																										</g>
																									</g>
																								</g>
																							</g>
																						</g>
																					</g>
																				</g>
																			</g>
																		</g>
																	</g>
																</g>
															</g>
															<g id="Layer">
																<g id="Layer">
																	<g id="Layer">
																		<g id="Layer">
																			<g id="Layer">
																				<g id="Layer">
																					<g id="Layer">
																						<g id="Layer">
																							<g id="Layer">
																								<g id="Layer">
																									<g id="Layer">
																										<g id="Layer">
																											<g id="Layer">
																												<g id="Layer">
																													<path id="Layer" class="s5" d="m329 144.7c-0.5 0.6-3.3-2-7.4-2-4-0.1-7 2.4-7.5 1.8-0.2-0.3 0.3-1.4 1.6-2.5 1.2-1.2 3.4-2.3 6-2.2 2.5 0 4.7 1.2 5.9 2.4 1.2 1.2 1.7 2.3 1.4 2.5z"/>
																												</g>
																											</g>
																										</g>
																									</g>
																								</g>
																							</g>
																						</g>
																					</g>
																				</g>
																			</g>
																		</g>
																	</g>
																</g>
															</g>
															<g id="Layer">
																<g id="Layer">
																	<g id="Layer">
																		<g id="Layer">
																			<g id="Layer">
																				<g id="Layer">
																					<g id="Layer">
																						<g id="Layer">
																							<g id="Layer">
																								<g id="Layer">
																									<g id="Layer">
																										<g id="Layer">
																											<g id="Layer">
																												<g id="Layer">
																													<path id="Layer" class="s5" d="m341.9 173.1c0-0.3 2.2-0.8 5.7-1.4 0.9-0.1 1.7-0.4 1.8-1.1 0.2-0.8-0.2-1.8-0.6-3.1q-1.4-3.7-2.9-7.7c-3.9-11.1-6.8-20.3-6.4-20.4 0.4-0.2 3.9 8.6 7.8 19.7q1.4 4.1 2.8 7.8c0.3 1.2 0.9 2.5 0.5 4.1-0.2 0.8-0.9 1.4-1.4 1.5-0.6 0.3-1.1 0.3-1.5 0.4-3.5 0.3-5.7 0.4-5.8 0.2z"/>
																												</g>
																											</g>
																										</g>
																									</g>
																								</g>
																							</g>
																						</g>
																					</g>
																				</g>
																			</g>
																		</g>
																	</g>
																</g>
															</g>
															<g id="Layer">
																<g id="Layer">
																	<g id="Layer">
																		<g id="Layer">
																			<g id="Layer">
																				<g id="Layer">
																					<g id="Layer">
																						<g id="Layer">
																							<g id="Layer">
																								<g id="Layer">
																									<g id="Layer">
																										<g id="Layer">
																											<g id="Layer">
																												<path id="Layer" class="s7" d="m345.6 228.3c-25.3 3.5-34.3-16.8-34.3-16.8 17.2 11.2 34.2 9.4 34.2 9.4z"/>
																											</g>
																										</g>
																									</g>
																								</g>
																							</g>
																						</g>
																					</g>
																				</g>
																			</g>
																		</g>
																	</g>
																</g>
															</g>
															<g id="Layer">
																<g id="Layer">
																	<g id="Layer">
																		<g id="Layer">
																			<g id="Layer">
																				<g id="Layer">
																					<g id="Layer">
																						<g id="Layer">
																							<g id="Layer">
																								<g id="Layer">
																									<g id="Layer">
																										<g id="Layer">
																											<g id="Layer">
																												<path id="Layer" class="s8" d="m340.8 183c0.3 0.4 0.3 1.1 0.1 1.5-0.3 0.5-0.7 0.9-1 1.3-1.3 1.3-2.7 2.6-4.4 3.2-1.7 0.6-3.6 0.3-4.6-1.2-0.9-1.3-0.7-3.4 0.1-4.8 1-1.5 2.4-2.4 4-2.7 2.2-0.3 4.4 0.7 5.7 2.6"/>
																											</g>
																										</g>
																									</g>
																								</g>
																							</g>
																						</g>
																					</g>
																				</g>
																			</g>
																		</g>
																	</g>
																</g>
															</g>
															<g id="Layer">
																<g id="Layer">
																	<g id="Layer">
																		<g id="Layer">
																			<g id="Layer">
																				<g id="Layer">
																					<g id="Layer">
																						<g id="Layer">
																							<g id="Layer">
																								<g id="Layer">
																									<g id="Layer">
																										<g id="Layer">
																											<g id="Layer">
																												<g id="Layer">
																													<path id="Layer" class="s5" d="m331.7 176.2c0.5 0 0.7 4.4 4 7.4 3.3 3 7.4 2.3 7.4 3 0.1 0.3-0.9 0.8-2.6 1-1.7 0.1-4.1-0.4-6.2-2.3-2-1.8-2.9-4.4-3.1-6.2-0.2-1.8 0.2-2.9 0.5-2.9z"/>
																												</g>
																											</g>
																										</g>
																									</g>
																								</g>
																							</g>
																						</g>
																					</g>
																				</g>
																			</g>
																		</g>
																	</g>
																</g>
															</g>
														</g>
													</g>
												</g>
												<g id="Layer">
													<g id="Layer">
														<g id="Layer">
															<g id="Layer">
																<g id="Layer">
																	<g id="Layer">
																		<g id="Layer">
																			<g id="Layer">
																				<g id="Layer">
																					<g id="Layer">
																						<g id="Layer">
																							<g id="Layer">
																								<g id="Layer">
																									<path id="Layer" class="s5" d="m329.3 133.8c-0.4 1.1-3.9 0.7-8 1.4-4.1 0.6-7.3 2.1-7.9 1.1-0.3-0.4 0.3-1.5 1.6-2.6 1.3-1.1 3.4-2.2 5.8-2.6 2.5-0.4 4.8 0 6.3 0.7 1.5 0.6 2.3 1.5 2.2 2z"/>
																								</g>
																							</g>
																						</g>
																					</g>
																				</g>
																			</g>
																		</g>
																	</g>
																</g>
															</g>
														</g>
													</g>
												</g>
												<g id="Layer">
													<g id="Layer">
														<g id="Layer">
															<g id="Layer">
																<g id="Layer">
																	<g id="Layer">
																		<g id="Layer">
																			<g id="Layer">
																				<g id="Layer">
																					<g id="Layer">
																						<g id="Layer">
																							<g id="Layer">
																								<g id="Layer">
																									<path id="Layer" class="s5" d="m361.3 125.6c-0.6 0.9-3.4 0-6.8 0.1-3.3 0-6.1 0.9-6.8-0.1-0.2-0.4 0.2-1.4 1.4-2.3 1.2-0.9 3.2-1.7 5.4-1.7 2.3 0 4.3 0.8 5.5 1.7 1.2 0.9 1.6 1.8 1.3 2.3z"/>
																								</g>
																							</g>
																						</g>
																					</g>
																				</g>
																			</g>
																		</g>
																	</g>
																</g>
															</g>
														</g>
													</g>
												</g>
											</g>
										</g>
									</g>
								</g>
							</g>
						</g>
					</g>
					<g id="Layer">
						<g id="Layer">
							<g id="Layer">
								<g id="Layer">
									<g id="Layer">
										<g id="Layer">
											<path id="Layer" class="s5" d="m282.6 111.4c2.5-4 6.7-5.9 10.8-7.4 17.6-6.8 35.8-11.1 54.3-12.8 2.1 4.5-0.3 10.3-3.9 13.3-3.6 2.9-8 3.9-12.2 5.5-4.2 1.5-8.6 4-10.5 8.6-2 4.9-0.7 10.9-2.5 15.9-3.1 8.6-13.8 10.9-16.8 19.5-2.3 6.5 0.7 13.8 1.2 20.8 0.6 7.9-2.3 16.2-7.5 21.4-4.1 4.1-9.6 6.2-15.1 6q-0.3-37.8-0.5-75.6c0-5.2 0-10.9 2.7-15.2z"/>
										</g>
									</g>
								</g>
							</g>
						</g>
					</g>
					<g id="Layer">
						<g id="Layer">
							<path id="Layer" class="s5" d="m236.1 172.5c3.6-3.4 8-6.2 9.6-11.2 2.3-7.3-2.5-16.3 1.1-22.9 3.3-6 12.2-5.2 15.3-11.3 2.4-4.8 0-9.3 1.1-13.6 1-4.2 6.4-7.7 10.2-7l27.6 51.4c2 16.9 4.4 25.9 0.9 35.5-1.9 5.3-4.4 10.4-5.3 16-0.8 5.6 0.1 12.1 4 15.6-17.8 0.6-34-11-48.9-22.3q-7.9-5.9-15.8-11.9c-1.7-1.2-3.4-2.5-4.3-4.5-2.2-4.7 0.9-10.5 4.5-13.8z"/>
						</g>
					</g>
					<g id="Layer">
						<g id="Layer">
							<g id="Layer">
								<path id="Layer" class="s9" d="m258.9 197.5c2.3-0.6 5.1-1.8 7.6-4.4 2.5-2.5 4.6-6.5 5.3-11.3 0.3-2.4 0.2-5-0.3-7.6-0.6-2.5-1.7-5-3-7.5-1.2-2.6-2.6-5.2-3.2-8.4-0.6-3.1-0.5-6.8 1.5-9.6 0.9-1.4 2.3-2.2 3.7-2.8 1.4-0.6 2.9-1 4.2-1.5 1.4-0.6 2.6-1.4 3.5-2.7 0.8-1.3 1.2-2.9 1.2-4.6 0.1-3.5-1.1-6.9-1.6-10.6-0.2-1.9-0.2-3.9 0.3-5.8 0.5-1.9 1.7-3.6 3.1-4.7 3-2.2 6.5-2.3 9.6-2.4 3.2-0.1 6.2-0.7 8.9-2.4 2.6-1.7 4.7-4.2 6.2-7.1 1.4-2.9 2-6.1 2.6-9.3 0.6-3.2 1.2-6.4 2.3-9.4 1.1-2.9 2.8-5.4 4.7-7.3 4-3.9 8.8-5.8 13.1-5.9 4.4-0.1 8.3 1.5 11.2 3.6 2.9 2 5.1 4.5 6.6 6.7 1.5 2.2 2.4 4.1 2.9 5.4 0.3 0.7 0.4 1.2 0.6 1.6q0.2 0.5 0.1 0.5c-0.1 0.1-0.9-2.9-3.9-7.2-1.5-2.1-3.6-4.5-6.6-6.4-2.9-2-6.6-3.5-10.9-3.3-4.2 0.2-8.8 2-12.5 5.7-1.9 1.9-3.4 4.3-4.5 7.1-1.1 2.8-1.6 5.9-2.1 9.1-0.6 3.2-1.3 6.6-2.8 9.7-1.5 3.1-3.8 5.7-6.6 7.5-2.7 1.9-6 2.5-9.2 2.6-3.2 0.2-6.5 0.3-9.1 2.3-1.3 0.9-2.3 2.4-2.8 4-0.4 1.7-0.4 3.5-0.1 5.3 0.4 3.5 1.6 7 1.5 10.8-0.1 1.8-0.4 3.7-1.5 5.3-1 1.5-2.5 2.4-3.9 3-2.8 1.1-5.8 1.6-7.6 4-1.7 2.4-1.8 5.7-1.3 8.6 0.5 3 1.9 5.6 3.1 8.1 1.2 2.6 2.3 5.1 2.9 7.9 0.6 2.7 0.6 5.3 0.3 7.8-0.7 5-2.9 9.2-5.6 11.7-2.6 2.7-5.5 3.9-7.9 4.4-2.4 0.6-4.3 0.4-5.6 0.2-1.2-0.2-1.8-0.5-1.8-0.5 0-0.2 2.6 1 7.4-0.2z"/>
							</g>
						</g>
					</g>
					<g id="Layer">
						<g id="Layer">
							<g id="Layer">
								<path id="Layer" class="s5" d="m228.8 162.7c-0.2 1.1-0.1 2.9 0.7 4.8 0.5 1 1.2 2 2.1 2.7 1 0.7 2.2 1.1 3.5 1.1 2.6 0.1 5.7-1.5 7.3-5 0.9-1.6 1.3-3.7 1.4-5.8 0.1-2.1-0.3-4.3-1-6.5-0.6-2.2-1.5-4.4-2.2-6.8-0.8-2.3-1.4-4.9-1.3-7.7 0-2.7 0.7-5.7 2.6-7.7 2-2.2 4.8-2.4 7.3-2.4 2.5 0.1 5 0.5 7.3-0.4 2.3-0.9 3.7-3.5 4.1-6.4 0.4-2.9 0-5.9-0.2-8.9-0.3-3 0-6.1 0.8-8.9 1.6-5.6 5.1-10.1 9.3-12.6 4.2-2.6 8.8-2.6 12.9-2.6 4 0 7.8 0 11.1-1.2 3.2-1.2 5.9-3.1 8-5.1 2.1-2 3.6-4.1 4.7-5.9 2.1-3.8 2.6-6.2 2.7-6.2 0 0-0.3 2.5-2.4 6.4-1 1.9-2.5 4.1-4.6 6.2-2.1 2.1-4.8 4.1-8.2 5.4-3.3 1.3-7.3 1.3-11.3 1.4-4 0-8.5 0-12.4 2.5-4 2.4-7.3 6.8-8.8 12.1-0.8 2.6-1.1 5.5-0.8 8.4 0.2 2.9 0.7 6 0.3 9.2-0.3 1.5-0.7 3.1-1.5 4.4-0.8 1.4-2 2.4-3.3 2.9-2.7 1-5.3 0.5-7.8 0.5-2.4-0.1-4.8 0.2-6.5 2-1.7 1.7-2.3 4.4-2.4 6.9-0.2 5.2 2.2 9.7 3.5 14.2 0.6 2.2 1 4.6 0.9 6.8-0.1 2.3-0.6 4.4-1.5 6.2-1.8 3.7-5.2 5.5-8 5.3-1.5-0.1-2.8-0.6-3.8-1.4-1-0.8-1.7-1.9-2.1-2.9-0.9-2.1-0.9-4-0.6-5.1 0.3-1.2 0.7-1.6 0.7-1.6 0 0-0.3 0.5-0.5 1.7z"/>
							</g>
						</g>
					</g>
					<g id="Layer">
						<g id="Layer">
							<g id="Layer">
								<path id="Layer" class="s5" d="m416.2 185.2c0.2 1 0.3 2.5-0.3 4.2-0.6 1.7-1.8 3.8-4.1 4.6-2.2 0.8-5.2 0-7.2-2.5-1-1.3-1.5-3.1-1.6-4.9 0-1.9 0.4-3.8 0.9-5.6 1.1-3.6 3.1-7.1 2.9-11.2 0-4.1-1.7-8.4-4.6-11.3-1.4-1.5-3.2-2.7-5.1-3.5-1.8-0.8-3.8-1.1-6-1.3-2.1-0.3-4.2-0.5-6.3-1.2-2-0.7-4-2.1-5.1-4.2-1.2-2-1.6-4.5-1.7-6.8 0-2.3 0.3-4.5 0.8-6.6 1-4.1 2.2-7.9 2.2-11.6 0-3.7-1-7.1-2.5-9.7-1.5-2.6-3.5-4.4-5.3-5.9-1.8-1.5-3.3-2.8-4.4-4.2-1.1-1.3-1.7-2.5-2.1-3.4-0.2-0.4-0.2-0.8-0.3-1q-0.1-0.4-0.1-0.4c0.2-0.1 0.5 2 2.8 4.5 1.1 1.2 2.6 2.5 4.4 3.9 1.8 1.5 4 3.3 5.6 6 1.6 2.7 2.7 6.3 2.7 10.2 0.1 3.9-1.2 7.8-2.1 11.9-0.4 2-0.7 4.1-0.7 6.3 0 2.1 0.4 4.3 1.5 6.2 1 1.8 2.7 3 4.6 3.7 1.9 0.6 4 0.8 6.1 1.1 2.1 0.2 4.3 0.5 6.3 1.4 2 0.8 3.8 2.1 5.4 3.6 3.1 3.2 4.8 7.8 4.9 12.2 0.1 4.6-2 8.2-3.1 11.7-0.6 1.7-0.9 3.4-0.9 5.1 0 1.7 0.5 3.2 1.3 4.4 1.8 2.3 4.5 3.1 6.5 2.4 2-0.7 3.3-2.5 3.8-4.1 1.2-3.4 0.2-5.4 0.3-5.4 0 0 0.3 0.4 0.5 1.4z"/>
							</g>
						</g>
					</g>
				</g>
				<g id="Layer">
					<path id="Layer" class="s5" d="m276.8 100.2c-1.7 6.5-6.7 11-9.9 16.7-4.7 8-5.7 18-5.8 27.6 0.2-4.5-1.3-8.9-2.1-13.3-1.3-7.8-0.1-16.2 3.3-23.1 3.5-6.8 9.2-12.1 15.8-14.6"/>
				</g>
				<g id="Layer">
					<g id="Layer">
						<path id="Layer" class="s6" d="m330.8 233.9l52.2 18-25.8 48.6-68.7-16.9-17.7-33.4c0.4-0.1 20.2-8.9 16.9-7.8z"/>
					</g>
					<g id="Layer">
						<path id="Layer" class="s9" d="m384.3 387.2l16.8 112.1-162.6 0.4c0.8-10.6 20.6-69.9 20.6-69.9 0 0-2.9-76-4.6-77-1.7-0.9-46-15.4-46-15.4 0 0 22.5-71.9 25.8-76.2 3.4-4.4 46.1-15.8 46.1-15.8 5 25.7 14.7 28.8 40.2 26.8 25.6-1.9 40.5-30.7 40.5-30.7 0 0 43.2 15.5 47.4 22.2 4.2 6.8 20.1 70.7 20.1 70.7l-41.9 20.9z"/>
					</g>
					<g id="Layer">
						<g id="Layer">
							<path id="Layer" class="s5" d="m242 297.6c0 0 0.2 0.8 0.6 2.3 0.4 1.6 1 3.7 1.6 6.3 1.3 5.3 3.1 12.6 5 20.7 1 4.1 1.9 8 2.7 11.5 0.4 1.8 0.9 3.5 1.2 5 0.3 1.6 0.6 3.1 0.9 4.5 0.4 2.7 0.7 4.9 0.9 6.4 0.3 1.6 0.4 2.4 0.3 2.4 0 0-0.1-0.2-0.2-0.6-0.1-0.5-0.2-1.1-0.3-1.7q-0.5-2.5-1.2-6.4-0.4-2.1-0.9-4.4-0.6-2.4-1.2-5c-0.9-3.5-1.8-7.4-2.8-11.5-1.9-8.1-3.6-15.5-4.9-20.9q-0.8-3.9-1.3-6.3c-0.3-1.5-0.5-2.3-0.4-2.3z"/>
						</g>
					</g>
					<g id="Layer">
						<g id="Layer">
							<path id="Layer" class="s5" d="m341.3 397.4q0 0-0.5 0.5c-0.4 0.4-0.8 0.9-1.4 1.5-1.3 1.2-3.1 2.9-5.5 5-4.7 4.2-11.4 9.6-19.2 14.9-7.8 5.3-15.2 9.4-20.6 12.1-2.8 1.3-5 2.3-6.5 3-0.8 0.3-1.4 0.6-1.8 0.8-0.4 0.1-0.6 0.2-0.7 0.2q0-0.1 0.6-0.4 0.7-0.3 1.8-0.8c1.5-0.8 3.7-1.9 6.4-3.3 5.4-2.8 12.7-7 20.5-12.2 7.7-5.3 14.5-10.6 19.2-14.7 2.4-2 4.3-3.7 5.6-4.8 0.6-0.6 1.1-1 1.5-1.4q0.6-0.4 0.6-0.4z"/>
						</g>
					</g>
					<g id="Layer" style="opacity: .2">
						<g id="Layer">
							<path id="Layer" class="s10" d="m391.5 436.9c-8.5-2.1-15.9-8.4-21.3-16.2-5.4-7.8-9.1-17.1-11.9-26.5-0.4-1.4-0.9-3-1.9-3.9-0.8-0.7-1.9-1-2.9-1.2-7.6-1.9-14.9-5.1-21.7-9.5-2.3-1.6-4.8-3.3-7.4-3.1-2.6 0.3-4.7 2.2-6.8 3.8-5.2 4-11.2 6.8-17.4 7.7-2.4 0.3-4.8 0.4-7.2 1.1-12.9 3.7-17.6 22.8-29.2 30.2-2 1.2-2.9 2.3-5.1 1.6l-0.1-2.1c2.2-11.9 2-25.5 5.1-37.1 1.3-4.5 2.6-9.1 5-12.9 2.3-3.4 5.4-6.1 8.4-8.6 9.3-7.9 19.1-15.8 30.3-18.3 12.3-2.8 24.9 1.1 36.5 6.6 11.4 5.4 22.4 12.6 30.3 23.5 12.8 17.6 15.6 42 17.3 64.9z"/>
						</g>
					</g>
					<g id="Layer" style="opacity: .2">
						<g id="Layer">
							<path id="Layer" class="s10" d="m344.9 407.7c-2.1 10.7-9.3 22.3-17.6 27.6-8.3 5.4-23.3 10.1-32.2 6.5 15.2-7.8 35.8-23.6 49.8-34.1z"/>
						</g>
					</g>
					<g id="Layer" style="opacity: .2">
						<g id="Layer">
							<path id="Layer" class="s10" d="m254.5 351.9c-5.6-5.7-9.9-13.6-11.3-22.1-1.4-8.5-1.4-17.3 0-25.8h0.2c1.9 6.9 3.3 14.4 5.3 21.4 2.4 8.8 4.6 18.4 5.8 26.5z"/>
						</g>
					</g>
					<g id="Layer">
						<g id="Layer">
							<path id="Layer" class="s5" d="m241.2 278.7c-0.1 0.1-1.6-3.4-2.8-8-1.2-4.5-1.7-8.4-1.5-8.4 0.2 0 0.9 3.7 2.1 8.2 1.2 4.5 2.3 8.1 2.2 8.2z"/>
						</g>
					</g>
					<g id="Layer">
						<g id="Layer">
							<path id="Layer" class="s5" d="m398 278.1c0.1 0.1-1.9 16.6-4.6 36.9-2.7 20.4-5.1 36.9-5.2 36.9-0.2 0 1.9-16.6 4.6-37 2.7-20.3 5-36.8 5.2-36.8z"/>
						</g>
					</g>
				</g>
				<g id="Layer">
					<g id="Layer">
						<path id="Layer" class="s8" d="m378.7 293.2c-0.3 19-4.4 28.2-19.5 42.4l-0.2 17.5-22 1.2-3.9-11.2-23.9 0.7-4.9 10.3-21.1 0.4-0.3-14.8c-10.4-4-18.1-11.7-25.9-25.8l-6.6-1.7c-2.5-0.6-4.3-3.2-4.4-6.1l-0.2-16.7c0-2.9 1.6-5.5 4.1-6.3l6.7-2.2c0 0 3.5-22.2 18.3-29.2l-0.2-17.3c0-1.7 1-3.2 2.5-3.5 4.7-1 15.3-1.6 23.2 9.7 0 0 36.3-6.6 55.9 6.6 19 12.8 22.8 26.9 22.4 46z"/>
					</g>
					<g id="Layer">
						<path id="Layer" class="s5" d="m269.8 275.9c2.1-0.4 4.2 2.4 3.6 4.8-0.6 2.5-3.6 3.5-5.2 1.8-1.7-1.7-1.2-5.2 0.8-6.3"/>
					</g>
					<g id="Layer">
						<g id="Layer">
							<path id="Layer" class="s5" d="m280.8 252.7c-0.1 0-0.1-1.1-0.3-3-0.2-1.9-0.5-4.4-1.2-7.2-0.6-2.7-1.5-5.2-2.1-6.9-0.7-1.7-1.2-2.7-1.1-2.8 0.1 0 0.6 0.9 1.4 2.6 0.7 1.7 1.6 4.1 2.3 6.9 0.6 2.8 0.9 5.5 1 7.4 0.2 1.9 0.1 3 0 3z"/>
						</g>
					</g>
					<g id="Layer" style="opacity: .3">
						<path id="Layer" class="s10" d="m332.7 248.4l2.6 3.3c-9.3-1.5-18.4-1.4-27 0.5l-1.4-2.9c8.6-2.3 17-2.7 25.8-0.9z"/>
					</g>
					<g id="Layer">
						<path id="Layer" class="s5" d="m251.8 297.5c0 1.8-0.5 3.2-1.3 3.2-0.7 0-1.3-1.4-1.3-3.1 0-1.7 0.6-3.2 1.3-3.2 0.7 0 1.2 1.4 1.3 3.1z"/>
					</g>
					<g id="Layer">
						<g id="Layer">
							<path id="Layer" class="s5" d="m248.9 309.8c0.1-0.1 0.5 0.2 1.3 0.2 0.7 0 2-0.1 2.9-1.3q0.7-0.9 1.3-2.1c0.4-0.9 0.6-1.9 0.8-2.9 0.5-2.1 0.8-4.5 0.7-7 0-2.4-0.2-4.8-0.7-6.9-0.6-2-1.6-3.6-2.8-4.4-1.2-0.9-2.3-1.1-3.1-1.1-0.8 0.1-1.2 0.3-1.2 0.3q0-0.1 0.3-0.2 0.2-0.2 0.9-0.3c0.8-0.1 2 0 3.3 0.9 1.3 0.8 2.4 2.5 3 4.6 0.6 2.1 0.8 4.6 0.9 7.1 0 2.5-0.3 5-0.8 7.1-0.3 1-0.5 2.1-0.9 2.9q-0.7 1.4-1.5 2.2c-0.5 0.6-1.1 1-1.7 1.2-0.6 0.1-1.1 0.1-1.5 0.1q-0.6-0.1-0.9-0.3c-0.2 0-0.3-0.1-0.3-0.1z"/>
						</g>
					</g>
					<g id="Layer">
						<g id="Layer">
							<path id="Layer" class="s5" d="m353.2 338.1q0 0-0.7 0.2-0.7 0.2-2 0.6c-1.6 0.4-4.1 1-7.1 1.6-3.1 0.6-6.7 1.1-10.8 1.6-4 0.5-8.5 0.9-13.2 1-4.7 0.1-9.2 0-13.2-0.2-4.1-0.3-7.8-0.7-10.8-1.1-3.1-0.4-5.6-0.9-7.3-1.2q-1.2-0.3-1.9-0.4-0.7-0.1-0.7-0.2 0 0 0.7 0.1c0.5 0.1 1.2 0.2 2 0.3 1.7 0.3 4.2 0.6 7.2 1 3.1 0.4 6.8 0.7 10.8 0.9 4.1 0.2 8.6 0.3 13.2 0.2 4.7-0.2 9.2-0.5 13.2-0.9 4.1-0.5 7.7-1 10.8-1.6 3-0.5 5.5-1 7.1-1.4q1.3-0.3 2-0.4c0.4-0.1 0.7-0.1 0.7-0.1z"/>
						</g>
					</g>
					<g id="Layer">
						<g id="Layer">
							<path id="Layer" class="s5" d="m300.1 240.5c0 0 0 0.5-0.1 1.2-0.2 0.8-0.4 1.9-0.9 3.3-0.9 2.6-2.7 6.1-5.7 8.9-2.9 2.7-6.3 4.1-8.7 4.6-1.2 0.2-2.2 0.3-2.9 0.3-0.7 0-1.1-0.1-1.1-0.1 0-0.1 1.6-0.1 3.9-0.6 2.4-0.6 5.6-2 8.5-4.7 2.8-2.7 4.7-6.1 5.7-8.6 0.9-2.6 1.2-4.3 1.3-4.3z"/>
						</g>
					</g>
					<g id="Layer">
						<g id="Layer">
							<path id="Layer" class="s1" d="m273.9 253.8c0 0.1-1.2 1-3 2.8-1.8 1.8-4.2 4.5-6.3 7.9-2.2 3.4-3.7 6.8-4.6 9.3-0.9 2.6-1.3 4.2-1.4 4.2 0 0 0-0.5 0.2-1.2 0.2-0.7 0.5-1.8 0.9-3.1 0.9-2.6 2.3-6.1 4.5-9.5 2.2-3.5 4.6-6.2 6.5-7.9q1.4-1.3 2.3-1.9c0.6-0.5 0.9-0.7 0.9-0.6z"/>
						</g>
					</g>
					<g id="Layer">
						<g id="Layer">
							<path id="Layer" class="s1" d="m250.1 283.5c0-0.1 1.2-0.4 2.7-0.9 1.4-0.4 2.6-0.8 2.7-0.6 0.1 0.1-1.1 0.8-2.6 1.2-1.5 0.4-2.7 0.5-2.8 0.3z"/>
						</g>
					</g>
					<g id="Layer">
						<g id="Layer">
							<path id="Layer" class="s1" d="m246.9 304.6c0 0-0.2-0.9-0.4-2.6-0.2-1.6-0.3-3.9-0.3-6.4 0-2.5 0.1-4.8 0.3-6.4 0.2-1.7 0.4-2.6 0.5-2.6 0.1 0-0.3 4-0.3 9 0 5 0.4 9 0.2 9z"/>
						</g>
					</g>
					<g id="Layer">
						<g id="Layer">
							<path id="Layer" class="s1" d="m275.6 233.4c0.2 0.1-0.2 4-0.1 8.8 0 4.9 0.5 8.8 0.3 8.8 0 0-0.2-0.9-0.4-2.5-0.2-1.6-0.4-3.8-0.5-6.3 0-2.4 0.1-4.6 0.3-6.2 0.2-1.6 0.3-2.6 0.4-2.6z"/>
						</g>
					</g>
					<g id="Layer">
						<g id="Layer">
							<path id="Layer" class="s1" d="m294 235.7c-0.1 0.1-3.4-2.3-8.2-3.3-4.7-1.1-8.6-0.2-8.6-0.4 0-0.1 1-0.4 2.6-0.6 1.6-0.1 3.8-0.1 6.1 0.4 2.4 0.6 4.5 1.5 5.9 2.3 1.4 0.8 2.2 1.5 2.2 1.6z"/>
						</g>
					</g>
					<g id="Layer">
						<g id="Layer">
							<path id="Layer" class="s1" d="m335.4 253.3c0 0.1-1.5-0.2-3.9-0.6-2.5-0.3-5.9-0.7-9.6-0.6-3.8 0-7.2 0.4-9.6 0.8-2.4 0.3-3.9 0.7-4 0.6q0-0.1 1.1-0.4c0.6-0.2 1.6-0.4 2.8-0.6 2.5-0.5 5.9-1 9.7-1 3.8 0 7.2 0.4 9.6 0.8q1.9 0.4 2.9 0.7c0.7 0.2 1 0.3 1 0.3z"/>
						</g>
					</g>
					<g id="Layer">
						<g id="Layer">
							<path id="Layer" class="s1" d="m341.6 243c0 0.1-0.5-0.1-1.5-0.3q-1.4-0.4-4.1-0.9c-3.4-0.7-8.2-1.4-13.6-1.6-5.4-0.2-10.2 0.3-13.7 0.7-1.7 0.3-3.1 0.5-4.1 0.7-1 0.2-1.5 0.2-1.5 0.2 0 0 0.5-0.2 1.5-0.4 0.9-0.3 2.3-0.5 4.1-0.8 3.4-0.6 8.3-1.1 13.7-0.9 5.4 0.1 10.2 0.9 13.7 1.7 1.7 0.4 3.1 0.8 4 1.1 1 0.3 1.5 0.5 1.5 0.5z"/>
						</g>
					</g>
					<g id="Layer">
						<g id="Layer">
							<path id="Layer" class="s1" d="m285.2 334.4c0 0.1-0.4 0.1-1-0.1-0.6-0.1-1.5-0.4-2.6-0.8-2.2-0.7-5.2-2.1-8.1-4.2-2.9-2.2-5.2-4.7-6.7-6.7-0.8-0.9-1.4-1.8-1.7-2.4-0.4-0.6-0.6-0.9-0.5-1 0 0 0.9 1.2 2.4 3.1 1.6 1.9 3.9 4.3 6.8 6.4 2.9 2.2 5.8 3.6 7.9 4.4 2.2 0.9 3.5 1.3 3.5 1.4z"/>
						</g>
					</g>
					<g id="Layer">
						<g id="Layer">
							<path id="Layer" class="s1" d="m371.3 315.5c0 0.1-0.2 0.6-0.8 1.6q-0.5 0.8-1.1 1.9c-0.5 0.6-1 1.5-1.7 2.3-0.6 0.8-1.3 1.7-2.1 2.6-0.8 0.9-1.7 1.8-2.7 2.7-2 1.8-4.2 3.6-6.8 5.1-2.6 1.5-5.2 2.6-7.6 3.4-1.2 0.3-2.4 0.7-3.5 0.8-1.1 0.3-2.1 0.4-3.1 0.5-0.9 0.2-1.8 0.1-2.5 0.2-0.7 0-1.4 0-1.9-0.1-1.1 0-1.6-0.1-1.6-0.1 0-0.1 0.5-0.1 1.6-0.1 0.5 0 1.2 0 1.9-0.1 0.7 0 1.6-0.1 2.5-0.2 1-0.2 2-0.3 3.1-0.6 1.1-0.2 2.2-0.5 3.4-0.9 2.3-0.8 4.9-1.9 7.5-3.4 2.5-1.5 4.8-3.2 6.8-5 0.9-0.9 1.9-1.7 2.6-2.6 0.8-0.9 1.6-1.7 2.2-2.5 0.7-0.8 1.2-1.6 1.7-2.2q0.7-1 1.1-1.8c0.6-1 1-1.5 1-1.5z"/>
						</g>
					</g>
				</g>
				<g id="Layer">
					<g id="Layer">
						<path id="Layer" class="s6" d="m253 352.2l-3.3 13.1 14.7-20.6 25.2 12.9c0 0-27.3 56.8-32.7 63.8-5.4 7-19.9 24.4-24.5 25.4-4.5 1-10-0.6-16.5-6.9-6.4-6.3-8.6-27.2-7.5-36.4 1-9.2 9-63.2 9.1-63.2z"/>
					</g>
					<g id="Layer">
						<g id="Layer">
							<path id="Layer" class="s7" d="m250.2 364.7c0 0-0.3 0.6-1 1.6q-1.1 1.7-2.8 4.4c-1.2 1.8-2.7 4-4.4 6.4-1.7 2.3-3.6 4.9-5.8 7.3-2.3 2.4-4.8 4.1-7.1 5.7-2.2 1.5-4.3 3-5.9 4.3-3.2 2.7-4.6 5.1-4.7 5-0.1 0 0-0.1 0.2-0.4 0.2-0.3 0.4-0.7 0.8-1.2 0.7-1 1.9-2.4 3.5-3.8 1.5-1.4 3.6-2.9 5.8-4.4 2.2-1.6 4.7-3.4 7-5.7 2.2-2.4 4.1-4.9 5.8-7.2 1.7-2.4 3.2-4.5 4.5-6.3q1.8-2.6 2.9-4.2c0.7-1 1.2-1.5 1.2-1.5z"/>
						</g>
					</g>
					<g id="Layer">
						<g id="Layer">
							<g id="Layer">
								<g id="Layer">
									<g id="Layer">
										<g id="Layer">
											<g id="Layer">
												<path id="Layer" class="s6" d="m270.1 337.2c0 0 7.9-7.7 10.3-5.5 2.5 2.3 2.7 4.3 1.6 5.9-1 1.5-7 10.2-7 10.2l4.4 4.8 7.8-2.9 3.4-0.9c0 0 8 0.2 6.3 6.4 0 0 8.3-3.1 9.8-3.2 2.3-0.2 8.1-0.9 7.3 2.6-0.9 3.5-4 4.7-4 4.7 0 0 3.7 1.4 1.4 5.1-2.2 3.8-5.2 4.6-5.2 4.6l-13.1 6.1c-1.6 0.7-3.4 0.7-5 0.1l-4.1-1.7-8.2 4.1c0 0-16.4-5.5-18.8-22.1l2.2-5.1 1.4-3c0 0-2-14.2-2-16.1 0-1.3-2.3-7.5-3.7-11-0.7-1.6 0.5-3.3 2-3.1 1.4 0.3 3.4 1.2 5.9 3.6 5.6 5.5 6.3 11.1 6.3 11.1l1.2 5.6"/>
											</g>
										</g>
										<g id="Layer">
											<g id="Layer">
												<g id="Layer">
													<g id="Layer">
														<path id="Layer" class="s7" d="m264.6 343.5c-0.1 0 0.5-0.5 1.4-1.5 1-0.9 2.3-2.5 3.8-4.4 0.9-0.9 1.8-1.8 2.8-2.8 1.1-1 2.2-2.1 3.6-2.8 0.8-0.4 1.5-0.7 2.4-0.7q0.6-0.1 1.2 0.1c0.2 0.1 0.4 0.1 0.7 0.2q0.3 0.2 0.5 0.4c0.4 0.3 0.7 0.6 1 1.1 0.1 0.3 0.2 0.6 0.2 0.8l0.2 0.7c0.1 0.5 0.3 1 0.1 1.6-0.1 0.5-0.3 1-0.5 1.5-0.7 1.9-1.7 3.5-2.7 5q-1.6 2.2-3.2 4.1c-2.2 2.4-4.3 4.4-6.5 5.4-2.2 1-4.2 0.6-5.4-0.1-0.6-0.3-1-0.7-1.2-1q-0.3-0.5-0.3-0.5c0.1 0 0.5 0.7 1.6 1.3 1.1 0.6 3.1 0.9 5.1-0.1 2.1-1 4.2-3 6.3-5.4q1.6-1.9 3.1-4.1c1.1-1.5 2.1-3 2.7-4.8q0.3-0.7 0.4-1.4c0.1-0.4 0-0.8-0.1-1.3l-0.2-0.7c0-0.3 0-0.4-0.1-0.6-0.2-0.3-0.5-0.6-0.8-0.9q-0.3-0.2-0.5-0.3c-0.2-0.1-0.3-0.2-0.5-0.2-0.4-0.1-0.8-0.1-1.1-0.1-0.8 0-1.5 0.3-2.2 0.6-1.3 0.7-2.5 1.7-3.5 2.6-1 1-2 1.9-2.8 2.8-1.7 1.8-3 3.4-4 4.3-0.4 0.4-0.9 0.8-1.1 1-0.3 0.1-0.5 0.2-0.5 0.2z"/>
													</g>
												</g>
											</g>
											<g id="Layer">
												<g id="Layer">
													<g id="Layer">
														<path id="Layer" class="s7" d="m270.3 337.5c0 0.1-1.5 0.3-3.3 0.3-1.8 0-3.2-0.2-3.2-0.3 0-0.2 1.4-0.3 3.2-0.3 1.8 0 3.3 0.1 3.3 0.3z"/>
													</g>
												</g>
											</g>
											<g id="Layer">
												<g id="Layer">
													<g id="Layer">
														<path id="Layer" class="s7" d="m274.3 355.4q0-0.1 0.6-0.3c0.4-0.3 1-0.5 1.7-0.9 1.5-0.7 3.7-1.7 6.3-2.9 1.3-0.7 2.8-1.4 4.5-1.9 1.6-0.6 3.5-0.9 5.4-0.6 1 0.2 2 0.6 2.9 1.2 0.8 0.6 1.7 1.5 1.9 2.9 0.1 1.4-0.5 2.7-1.4 3.5-0.9 0.8-1.9 1.2-3 1.7-4 1.9-7.9 3.6-11.5 5.2-1.8 0.8-3.5 1.6-5.2 2-1.7 0.4-3.3 0.5-4.8 0.1-1.4-0.4-2.6-1.5-3.1-2.7-0.6-1.2-0.8-2.4-0.8-3.3q-0.1-1.4-0.1-2.2c0.1-0.4 0.1-0.7 0.1-0.7 0.1 0 0 1 0.2 2.9 0.1 0.9 0.3 2 0.9 3.1 0.5 1.1 1.6 2.1 3 2.4 1.3 0.4 2.9 0.3 4.5-0.1 1.7-0.4 3.4-1.2 5.1-2 3.6-1.6 7.5-3.4 11.6-5.3 1-0.4 2-0.9 2.8-1.6 0.8-0.7 1.3-1.8 1.2-2.9-0.1-1-0.9-1.9-1.7-2.4-0.8-0.6-1.7-1-2.6-1.2-1.8-0.3-3.6 0-5.2 0.5-1.7 0.5-3.1 1.2-4.5 1.8-2.6 1.1-4.8 2.1-6.4 2.8q-1 0.4-1.7 0.7-0.7 0.2-0.7 0.2z"/>
													</g>
												</g>
											</g>
											<g id="Layer">
												<g id="Layer">
													<g id="Layer">
														<path id="Layer" class="s7" d="m297.1 355.3q0 0 0.6-0.3 0.6-0.3 1.6-0.8c1.4-0.6 3.5-1.5 6.2-2.2 1.4-0.3 2.9-0.5 4.5-0.5 0.8 0.1 1.6 0.1 2.5 0.4 0.4 0.1 0.9 0.3 1.3 0.8 0.3 0.5 0.4 1 0.4 1.6 0.1 1.2-0.5 2.3-1.3 3.1-0.7 0.7-1.6 1.3-2.4 1.9q-2.6 1.7-5.5 3.1c-3.9 1.9-7.7 3.1-11.2 4.3q-2.6 0.8-4.9 1.6c-1.6 0.5-3 1-4.4 1.3-1.4 0.3-2.7 0.3-3.7-0.1-1.1-0.4-1.9-1-2.4-1.7-0.6-0.7-0.8-1.3-0.9-1.8-0.1-0.4-0.1-0.7-0.1-0.7 0.1-0.1 0.1 1.1 1.1 2.3 0.5 0.6 1.4 1.2 2.4 1.6 1 0.3 2.2 0.3 3.5 0 1.4-0.3 2.8-0.8 4.3-1.4q2.4-0.8 4.9-1.7c3.5-1.2 7.3-2.4 11.2-4.2q2.9-1.4 5.4-3.1c0.9-0.6 1.7-1.2 2.4-1.8 0.6-0.7 1.1-1.6 1.1-2.6 0-1-0.6-1.7-1.3-1.9-0.8-0.3-1.7-0.3-2.4-0.3-1.6-0.1-3.1 0.1-4.4 0.4-2.7 0.6-4.8 1.4-6.2 2q-1.1 0.3-1.7 0.6c-0.4 0-0.6 0.1-0.6 0.1z"/>
													</g>
												</g>
											</g>
										</g>
									</g>
								</g>
							</g>
						</g>
					</g>
				</g>
				<g id="Layer">
					<g id="Layer">
						<path id="Layer" class="s6" d="m383.3 352l14.1 25.6-9.5-22.9 36-17.9c0 0 7 55.2 8.3 66.9 3.1 30.6-13.7 48.3-31 46-16.2-2.2-44.9-86-44.9-86z"/>
					</g>
					<g id="Layer">
						<g id="Layer">
							<path id="Layer" class="s7" d="m421.4 420.3c-0.1-0.1-0.1-1.1-0.1-3.1-0.1-1.9-0.3-4.7-1.1-8-0.9-3.3-2.5-7-5.5-10-1.4-1.5-3.3-2.7-4.9-4.4-1.6-1.7-3.2-3.5-4.7-5.5-6-8.1-10.4-16.2-13.6-22-1.6-3-2.9-5.4-3.8-7q-0.6-1.2-0.9-1.9-0.4-0.7-0.4-0.7 0.1-0.1 0.4 0.6 0.5 0.7 1.1 1.8c1 1.7 2.3 4.1 3.9 6.9 3.3 5.7 7.8 13.8 13.7 21.8 1.5 2 3.1 3.8 4.7 5.4 1.5 1.7 3.3 2.9 4.8 4.5 3 3.1 4.7 7 5.5 10.3 0.8 3.4 0.9 6.3 1 8.2q0 1.5-0.1 2.2 0 0.9 0 0.8z"/>
						</g>
					</g>
					<g id="Layer">
						<g id="Layer">
							<g id="Layer">
								<g id="Layer">
									<path id="Layer" class="s6" d="m372.5 319.9c1.6 3 5.1 12.1 5.1 12.1 0 0 9.3 15.5 8.9 25.7-0.1 2-5.5 6.1-5.5 6.1 0 0-17.1 14.8-21.2 15.7-4.1 1-10.2-3.5-10.9-3.7-0.7-0.2-23.7-17.2-23.8-19.6-0.2-4 2.5-5.1 2.5-5.1l26.1-1.7 12.4-11.3-0.6-8.3"/>
								</g>
							</g>
							<g id="Layer">
								<g id="Layer">
									<g id="Layer">
										<path id="Layer" class="s7" d="m371.2 349.6c0 0.1-0.5 0.5-1.4 1.2-1 0.8-2.3 1.8-3.9 3.1-1.7 1.3-3.6 2.8-5.9 4.5-0.7 0.4-1.5 0.3-2.1 0.3q-1.1 0.1-2.2 0.1-2.1 0.2-4.4 0.4c-3.1 0.3-6 0.5-8.7 0.4-1.3 0-2.6-0.3-3.8-0.9-1.1-0.6-1.9-1.9-1.9-3.2 0-1.2 0.4-2.3 0.9-3 0.6-0.8 1.2-1.2 1.7-1.5q0.7-0.5 1.2-0.6 0.4-0.1 0.4-0.1c0.1 0.1-0.6 0.2-1.5 0.9-0.5 0.3-1.1 0.8-1.5 1.5-0.5 0.7-0.8 1.7-0.8 2.8 0.1 1.1 0.7 2.2 1.8 2.7 1 0.6 2.2 0.8 3.5 0.9 2.7 0 5.6-0.2 8.7-0.5 1.5-0.2 3-0.3 4.4-0.4q1.1-0.1 2.2-0.1c0.7 0 1.4 0.1 1.9-0.3 2.2-1.6 4.2-3.1 5.9-4.3 1.7-1.2 3-2.2 4.1-2.9 0.9-0.7 1.4-1 1.4-1z"/>
									</g>
								</g>
							</g>
							<g id="Layer">
								<g id="Layer">
									<g id="Layer">
										<path id="Layer" class="s7" d="m372.1 364.1q0 0.1-0.5 0.2-0.7 0.2-1.5 0.4-2.1 0.4-5.5 1.2c-2.4 0.5-5.2 1-8.2 1.7-1.6 0.3-3.2 0.6-4.9 0.9-0.8 0.2-1.7 0.4-2.6 0.5-0.9 0.1-1.9 0-2.7-0.6-0.8-0.6-1.5-1.2-2.2-1.8q-1.1-0.8-2.2-1.6c-1.4-1.1-2.9-1.9-4.3-2.6-1.4-0.7-2.9-1.1-4.2-1.7-1.3-0.7-2.4-1.6-3.3-2.5q-1.3-1.4-2.3-2.6c-0.6-0.8-1-1.8-1-2.6 0-0.8 0.3-1.4 0.5-1.7 0.3-0.3 0.5-0.3 0.5-0.3 0 0-0.2 0.1-0.4 0.4-0.2 0.3-0.4 0.9-0.4 1.6 0.1 1.5 1.7 3 3.4 4.8 0.9 0.9 1.9 1.8 3.2 2.4 1.3 0.6 2.7 1 4.2 1.6 1.5 0.7 3 1.6 4.4 2.6q1.1 0.8 2.2 1.7c0.8 0.6 1.4 1.2 2.2 1.7 1.5 1.1 3.3 0.4 5 0.1q2.5-0.4 4.8-0.9c3.1-0.6 5.8-1.1 8.2-1.6 2.3-0.4 4.2-0.7 5.6-1 0.6-0.1 1.1-0.1 1.5-0.2q0.5-0.1 0.5-0.1z"/>
									</g>
								</g>
							</g>
							<g id="Layer">
								<g id="Layer">
									<g id="Layer">
										<path id="Layer" class="s7" d="m365 373.6c0 0.1-0.9 0.4-2.4 0.8-1.4 0.4-3.5 0.8-5.8 1.1-2.3 0.3-4.4 0.4-5.9 0.4-1.6-0.1-2.5-0.7-2.4-0.8 0-0.1 0.9 0.4 2.4 0.3 1.5-0.1 3.5-0.3 5.8-0.5 2.3-0.3 4.4-0.7 5.8-0.9 1.5-0.3 2.4-0.5 2.5-0.4z"/>
									</g>
								</g>
							</g>
							<g id="Layer">
								<g id="Layer">
									<path id="Layer" class="s7" d="m382.4 360.5q0 0-0.1 0.5-0.1 0.4-0.4 1.2c-0.4 1.1-1.4 2.4-2.9 3.5-0.7 0.6-1.6 1-2.6 1.4-0.5 0.2-0.9 0.4-1.1 1-0.1 0.4-0.1 1.2-0.3 1.8-0.4 1.4-1.2 2.6-2.2 3.5-1.1 1-2.4 1.4-3.7 1.7-1.3 0.4-2.6 0.7-3.7 1.3-1 0.7-2.1 1.5-3.1 2.1-0.5 0.4-0.9 0.7-1.5 1q-0.8 0.5-1.6 0.5c-1.1 0.1-2.1-0.1-2.9-0.4-1.8-0.5-3-1.2-3.9-1.8-0.9-0.4-1.4-0.8-1.3-0.8 0 0 0.5 0.2 1.4 0.6 0.9 0.4 2.2 1 3.9 1.5 0.8 0.2 1.8 0.4 2.8 0.3q0.7-0.1 1.4-0.5c0.4-0.3 0.9-0.6 1.4-1 1-0.7 2-1.5 3.1-2.2 1.2-0.7 2.5-0.9 3.8-1.3 1.3-0.3 2.6-0.8 3.6-1.6 0.9-0.8 1.6-1.9 2-3.1 0.2-0.6 0.2-1.2 0.4-1.9 0.2-0.8 0.9-1.1 1.3-1.3q1.5-0.5 2.6-1.3c1.5-1 2.4-2.2 2.9-3.2 0.5-0.9 0.7-1.5 0.7-1.5z"/>
								</g>
							</g>
						</g>
						<g id="Layer">
							<g id="Layer">
								<path id="Layer" class="s7" d="m369.2 335.1c0.1 0.1-3.3 3.4-7.6 7.4-4.3 4-7.8 7-7.9 6.9-0.1-0.2 3.2-3.5 7.5-7.5 4.3-3.9 7.9-7 8-6.8z"/>
							</g>
						</g>
					</g>
				</g>
			</g>
			<g id="Layer">
				<g id="Layer">
					<ellipse id="Layer" class="s3" cx="568.6" cy="303.9" rx="70.5" ry="81.6"/>
				</g>
				<g id="Layer">
					<g id="Layer">
						<path id="Layer" class="s5" d="m639.1 303.9q0 0-0.1-1.3c0-0.8 0-2.1-0.1-3.8-0.2-3.4-0.7-8.5-2-14.7-0.7-3.2-1.6-6.6-2.9-10.3-1.3-3.6-2.9-7.5-4.9-11.4-4.1-7.9-9.9-16.1-17.9-23.2-4-3.5-8.5-6.6-13.5-9.2-4.9-2.6-10.4-4.7-16.1-5.9-5.8-1.3-11.9-1.8-18.2-1.2-3.1 0.2-6.3 0.8-9.4 1.5q-4.7 1.2-9.4 3.1c-12.4 5.2-24.2 14.9-32.7 28.4-2.1 3.3-4 6.9-5.7 10.7-1.7 3.7-3.1 7.6-4.3 11.7-2.3 8.1-3.5 16.9-3.6 25.7 0.1 8.8 1.3 17.5 3.6 25.6 0.5 2.1 1.3 4.1 1.9 6 0.8 2 1.5 3.9 2.4 5.8 1.7 3.7 3.6 7.3 5.7 10.7 8.5 13.4 20.3 23.1 32.7 28.3q4.7 1.9 9.4 3.1c3.1 0.7 6.3 1.3 9.4 1.5 6.3 0.6 12.4 0.1 18.2-1.1 5.7-1.2 11.2-3.3 16.1-5.9 5-2.6 9.5-5.8 13.5-9.3 8-7 13.8-15.2 17.9-23.1 2-3.9 3.6-7.8 4.9-11.5 1.3-3.6 2.2-7.1 2.9-10.2 1.3-6.3 1.8-11.3 2-14.7 0.1-1.7 0.1-3 0.1-3.9q0.1-1.4 0.1-1.3c0 0 0 1.8-0.1 5.2-0.1 3.4-0.6 8.4-1.9 14.7-0.7 3.1-1.6 6.6-2.9 10.3-1.2 3.7-2.8 7.6-4.8 11.5-4.1 7.9-9.9 16.2-17.9 23.3-4 3.6-8.6 6.7-13.5 9.4-5 2.6-10.5 4.7-16.3 6-5.8 1.2-11.9 1.7-18.2 1.2-3.2-0.3-6.3-0.8-9.5-1.6q-4.8-1.2-9.5-3.1c-12.4-5.2-24.3-15-32.9-28.5-2.2-3.4-4-7-5.8-10.8-0.8-1.8-1.6-3.8-2.3-5.8-0.7-2-1.4-4-2-6-2.4-8.2-3.6-17-3.6-25.9 0-8.8 1.2-17.6 3.6-25.8 1.2-4.1 2.6-8.1 4.4-11.9 1.7-3.7 3.6-7.4 5.7-10.7 8.6-13.6 20.5-23.3 33-28.5 3.1-1.3 6.3-2.3 9.4-3.1 3.2-0.7 6.4-1.3 9.5-1.5 6.3-0.6 12.5-0.1 18.3 1.2 5.8 1.2 11.2 3.3 16.2 5.9 5 2.7 9.5 5.9 13.5 9.4 8 7.1 13.8 15.4 17.9 23.3 2 3.9 3.6 7.9 4.9 11.5 1.3 3.7 2.1 7.2 2.8 10.3 1.4 6.3 1.8 11.4 1.9 14.8 0.1 3.3 0.1 5.2 0.1 5.2z"/>
					</g>
				</g>
			</g>
			<g id="Layer">
				<g id="Layer">
					<rect id="Layer" class="s8" x="528.5" y="271.5" width="88.2" height="68.8" rx="23"></rect>
				</g>
				<g id="Layer" style="opacity: .3">
					<path id="Layer" class="s1" d="m528.5 286.4h88.3v14.4h-88.3z"/>
				</g>
				<g id="Layer">
					<g id="Layer">
						<path id="Layer" class="s5" d="m567.5 324.9c0 0.2-7.2 0.3-16.1 0.3-8.8 0-16-0.1-16-0.3 0-0.2 7.2-0.3 16-0.3 8.9 0 16.1 0.2 16.1 0.3z"/>
					</g>
				</g>
				<g id="Layer">
					<g id="Layer">
						<path id="Layer" class="s5" d="m574.2 321.6c0 0.2-8.7 0.3-19.4 0.3-10.8 0-19.4-0.1-19.4-0.3 0-0.2 8.7-0.3 19.4-0.3 10.7 0 19.4 0.2 19.4 0.3z"/>
					</g>
				</g>
				<g id="Layer">
					<g id="Layer">
						<ellipse id="Layer" class="s1" cx="598" cy="313.1" rx="5.2" ry="6"/>
					</g>
					<g id="Layer">
						<path id="Layer" fill-rule="evenodd" class="s1" d="m604.9 319.3c-2.9 0-5.2-2.7-5.2-6.1 0-3.3 2.3-6 5.2-6 2.9 0 5.2 2.7 5.2 6 0 3.4-2.3 6.1-5.2 6.1zm4.2-6.1c0-2.7-1.9-4.9-4.2-4.9-2.3 0-4.2 2.2-4.2 4.9 0 2.7 1.9 4.9 4.2 4.9 2.3 0 4.2-2.2 4.2-4.9z"/>
					</g>
				</g>
			</g>
			<g id="Layer">
				<g id="Layer">
					<path id="Layer" class="s5" d="m499 306.6c0 0.1-15.2 0.3-34 0.3-18.8 0-34.1-0.2-34.1-0.4 0-0.1 15.3-0.3 34.1-0.3 18.8 0 34 0.2 34 0.3z"/>
				</g>
			</g>
			<g id="Layer">
				<g id="Layer">
					<g id="Layer">
						<ellipse id="Layer" class="s3" cx="499.4" cy="81.5" rx="70.5" ry="81.6"/>
					</g>
					<g id="Layer">
						<g id="Layer">
							<path id="Layer" class="s5" d="m569.9 81.5q0 0 0-1.3c-0.1-0.9-0.1-2.2-0.2-3.9-0.2-3.4-0.7-8.4-2-14.7-0.7-3.1-1.6-6.6-2.9-10.2-1.3-3.7-2.9-7.6-4.9-11.5-4.1-7.9-9.9-16.1-17.9-23.1-4-3.5-8.5-6.7-13.5-9.3-4.9-2.6-10.4-4.7-16.1-5.9-5.8-1.2-11.9-1.7-18.2-1.1-3.1 0.2-6.2 0.8-9.4 1.5q-4.7 1.2-9.4 3.1c-12.4 5.2-24.2 14.9-32.7 28.3-2.1 3.4-4 7-5.7 10.7-1.7 3.8-3.1 7.7-4.3 11.8-2.3 8.1-3.5 16.8-3.6 25.6 0.1 8.8 1.3 17.5 3.6 25.7 0.6 2 1.3 4 2 6 0.7 1.9 1.5 3.8 2.3 5.7 1.7 3.8 3.6 7.4 5.7 10.7 8.5 13.5 20.3 23.2 32.7 28.4q4.7 1.9 9.4 3.1c3.2 0.7 6.3 1.2 9.4 1.5 6.3 0.6 12.4 0.1 18.2-1.2 5.7-1.2 11.2-3.3 16.1-5.9 5-2.6 9.5-5.7 13.5-9.2 8-7.1 13.8-15.3 17.9-23.2 2.1-3.9 3.6-7.8 4.9-11.4 1.3-3.7 2.2-7.1 2.9-10.3 1.3-6.2 1.8-11.3 2-14.7 0.1-1.7 0.1-3 0.2-3.8q0-1.4 0-1.4c0 0 0.1 1.8-0.1 5.2-0.1 3.4-0.6 8.5-1.9 14.7-0.7 3.2-1.6 6.7-2.9 10.3-1.2 3.7-2.8 7.6-4.8 11.6-4.1 7.9-9.9 16.1-17.9 23.2-4 3.6-8.6 6.8-13.5 9.4-5 2.6-10.5 4.8-16.3 6-5.8 1.2-11.9 1.7-18.2 1.2-3.2-0.2-6.3-0.8-9.5-1.5q-4.8-1.2-9.5-3.1c-12.4-5.2-24.3-15-32.9-28.6-2.2-3.3-4-6.9-5.8-10.7-0.8-1.9-1.6-3.8-2.3-5.8-0.7-2-1.4-4-2-6.1-2.4-8.2-3.6-16.9-3.6-25.8 0-8.9 1.2-17.7 3.6-25.9 1.2-4.1 2.7-8 4.4-11.8 1.7-3.8 3.6-7.4 5.8-10.8 8.5-13.5 20.4-23.3 32.9-28.5 3.1-1.3 6.3-2.3 9.4-3.1 3.2-0.7 6.4-1.3 9.5-1.5 6.3-0.6 12.5-0.1 18.3 1.2 5.8 1.2 11.2 3.3 16.2 6 5 2.6 9.5 5.8 13.5 9.3 8 7.1 13.8 15.4 17.9 23.3 2.1 4 3.6 7.9 4.9 11.6 1.3 3.6 2.1 7.1 2.8 10.2 1.4 6.4 1.8 11.4 2 14.8 0.1 3.4 0 5.2 0 5.2z"/>
						</g>
					</g>
				</g>
				<g id="Layer">
					<g id="Layer">
						<g id="Layer">
							<g id="Layer">
								<g id="Layer">
									<path id="Layer" class="s8" d="m540.1 75.1l0.1 49.2-58.9 0.3 4.1-80.4v-0.3l27.5-0.1z"/>
								</g>
							</g>
						</g>
						<g id="Layer" style="opacity: .3">
							<g id="Layer">
								<g id="Layer">
									<path id="Layer" class="s10" d="m540.1 75.1l0.1 49.2-58.9 0.3 4.1-80.4v-0.3l27.5-0.1z"/>
								</g>
							</g>
						</g>
						<g id="Layer">
							<g id="Layer">
								<g id="Layer">
									<path id="Layer" class="s8" d="m513 74.8l0.2 49.7-55.2 0.2-0.2-50.8 27.6-30z"/>
								</g>
							</g>
						</g>
						<g id="Layer" style="opacity: .3">
							<g id="Layer">
								<g id="Layer">
									<g id="Layer">
										<path id="Layer" class="s1" d="m504.9 92.9l-11.7 0.1-0.1-13.6 11.8-0.1z"/>
									</g>
								</g>
							</g>
						</g>
						<g id="Layer" style="opacity: .3">
							<g id="Layer">
								<g id="Layer">
									<g id="Layer">
										<path id="Layer" class="s1" d="m476.2 93l-11.7 0.1-0.1-13.6 11.8-0.1z"/>
									</g>
								</g>
							</g>
						</g>
						<g id="Layer">
							<g id="Layer">
								<g id="Layer">
									<path id="Layer" class="s8" d="m470.3 69.6h-5.9l-0.1-20.1 5.9-0.1z"/>
								</g>
							</g>
						</g>
						<g id="Layer" style="opacity: .3">
							<g id="Layer">
								<g id="Layer">
									<g id="Layer">
										<path id="Layer" class="s10" d="m476.3 124.6v-25h13.6l0.1 25z"/>
									</g>
								</g>
							</g>
						</g>
					</g>
					<g id="Layer">
						<g id="Layer">
							<path id="Layer" class="s5" d="m512.9 43.8c0 0 0.1 0 0.2 0.1q0.1 0.2 0.4 0.5 0.5 0.6 1.5 1.6c1.3 1.5 3.1 3.6 5.6 6.4 4.8 5.5 11.6 13.3 19.6 22.6l0.4 0.4h-0.5c-8.2-0.1-17.3-0.2-27.1-0.4h-0.1c-1.5-1.7-3.1-3.5-4.8-5.3-8.2-9.2-16-17.9-22.9-25.6h0.4c-8.7 9.4-16 17.4-21.2 23-2.6 2.7-4.6 4.9-6 6.4-0.7 0.7-1.3 1.3-1.6 1.7q-0.2 0.3-0.4 0.4c-0.1 0.2-0.2 0.2-0.2 0.2q0 0 0.1-0.2 0.2-0.2 0.4-0.5 0.6-0.6 1.6-1.7c1.4-1.6 3.4-3.8 5.9-6.6 5.1-5.6 12.4-13.6 21-23.1l0.2-0.1 0.2 0.1c6.8 7.6 14.6 16.4 22.9 25.6 1.7 1.8 3.2 3.6 4.8 5.2h-0.2c9.7 0.1 18.9 0.3 27.1 0.4l-0.2 0.4c-8.1-9.3-14.8-17.2-19.6-22.7-2.3-2.8-4.2-4.9-5.5-6.5q-0.9-1.1-1.4-1.7c-0.2-0.2-0.3-0.3-0.4-0.4q-0.2-0.2-0.2-0.2z"/>
						</g>
					</g>
					<g id="Layer">
						<g id="Layer">
							<path id="Layer" class="s5" d="m489.9 124.5c0 0 0-0.1 0-0.4 0-0.4-0.1-0.8-0.1-1.4 0-1.3 0-3.1 0-5.2-0.1-4.5-0.1-10.8-0.1-17.9l0.2 0.3q-3.2 0-6.8 0-3.5 0-6.8 0l0.3-0.3c-0.1 7.1-0.1 13.4-0.1 17.9q-0.1 3.3-0.1 5.2 0 0.9 0 1.4c0 0.4 0 0.5 0 0.5 0 0-0.1-0.2-0.1-0.5 0-0.3 0-0.8 0-1.4 0-1.3 0-3-0.1-5.2 0-4.5 0-10.8-0.1-17.9v-0.3h0.3q3.2 0 6.8 0 3.5 0 6.8 0h0.3v0.3c-0.1 7.1-0.1 13.4-0.1 17.9-0.1 2.1-0.1 3.9-0.1 5.2q0 0.8 0 1.4c-0.2 0.3-0.2 0.4-0.2 0.4z"/>
						</g>
					</g>
				</g>
				<g id="Layer">
					<g id="Layer">
						<path id="Layer" class="s5" d="m461.9 150.6c0.1 0.1-11.9 23.4-26.9 52.1-14.9 28.7-27.2 52-27.3 51.9-0.1-0.1 11.9-23.5 26.9-52.2 14.9-28.7 27.1-51.9 27.3-51.8z"/>
					</g>
				</g>
			</g>
			<g id="Layer">
				<g id="Layer">
					<g id="Layer">
						<ellipse id="Layer" class="s3" cx="142.9" cy="84.1" rx="70.5" ry="81.6"/>
					</g>
					<g id="Layer">
						<g id="Layer">
							<path id="Layer" class="s5" d="m213.4 84.1q0 0-0.1-1.3c0-0.9 0-2.2-0.1-3.9-0.2-3.4-0.7-8.4-2-14.7-0.8-3.1-1.6-6.6-2.9-10.2-1.3-3.6-2.9-7.5-4.9-11.5-4.1-7.8-10-16.1-17.9-23.1-4-3.5-8.5-6.7-13.5-9.3-4.9-2.6-10.4-4.7-16.2-5.9-5.7-1.2-11.9-1.7-18.1-1.1-3.1 0.2-6.3 0.8-9.4 1.5q-4.7 1.2-9.4 3.1c-12.4 5.2-24.2 14.9-32.7 28.4-2.1 3.3-4 6.9-5.7 10.6-1.7 3.8-3.1 7.7-4.3 11.8-2.4 8.1-3.5 16.8-3.6 25.6 0 8.9 1.2 17.6 3.6 25.7 0.5 2.1 1.2 4 1.9 6 0.8 2 1.5 3.9 2.4 5.8 1.7 3.7 3.6 7.3 5.7 10.6 8.5 13.5 20.3 23.2 32.7 28.4q4.7 1.9 9.4 3.1c3.1 0.7 6.3 1.3 9.4 1.5 6.2 0.6 12.4 0.1 18.1-1.1 5.8-1.2 11.3-3.3 16.2-5.9 5-2.6 9.5-5.8 13.5-9.3 7.9-7 13.8-15.3 17.9-23.1 2-3.9 3.6-7.8 4.9-11.5 1.3-3.6 2.1-7.1 2.9-10.2 1.3-6.3 1.8-11.3 2-14.7 0.1-1.7 0.1-3 0.1-3.9q0.1-1.3 0.1-1.3c0 0 0 1.7-0.1 5.2-0.2 3.3-0.6 8.4-1.9 14.7-0.7 3.1-1.6 6.6-2.9 10.3-1.2 3.6-2.8 7.5-4.9 11.5-4 7.9-9.9 16.2-17.9 23.3-3.9 3.6-8.5 6.7-13.5 9.4-4.9 2.6-10.4 4.7-16.2 5.9-5.8 1.3-12 1.8-18.2 1.3-3.2-0.2-6.3-0.8-9.5-1.6q-4.8-1.2-9.5-3.1c-12.5-5.2-24.4-14.9-32.9-28.5-2.2-3.3-4.1-7-5.8-10.7-0.9-1.9-1.6-3.9-2.4-5.8-0.6-2-1.4-4-1.9-6.1-2.4-8.2-3.6-17-3.6-25.8 0-8.9 1.2-17.7 3.6-25.9 1.2-4.1 2.6-8.1 4.3-11.8 1.8-3.8 3.7-7.4 5.8-10.8 8.6-13.5 20.5-23.3 33-28.5 3.1-1.3 6.3-2.3 9.4-3.1 3.2-0.7 6.3-1.3 9.5-1.5 6.2-0.6 12.3-0.1 18.1 1.2 5.9 1.2 11.3 3.3 16.3 5.9 5 2.7 9.5 5.9 13.5 9.4 8 7.1 13.8 15.4 17.9 23.3 2 4 3.6 7.9 4.9 11.5 1.3 3.7 2.1 7.2 2.8 10.3 1.3 6.3 1.8 11.4 1.9 14.7 0.2 3.5 0.2 5.2 0.2 5.2z"/>
						</g>
					</g>
				</g>
				<g id="Layer">
					<g id="Layer">
						<g id="Layer">
							<path id="Layer" class="s1" d="m116.9 29h42.4l20.7 24v68.8c0 6.4-4.5 11.6-10 11.6h-58.4v-98.2c0-3.4 2.4-6.1 5.3-6.1z"/>
						</g>
						<g id="Layer">
							<g id="Layer">
								<path id="Layer" class="s5" d="m111.6 35.2q0 0 0-0.3c0-0.2 0-0.4 0.1-0.8 0.1-0.6 0.3-1.7 1-2.8 0.7-1 2-2.1 3.7-2.3 1.7-0.1 3.7-0.1 5.9-0.1 8.8 0 21.5 0 37.1-0.1h0.1v0.1c6.3 7.1 13.2 15.2 20.7 23.9h0.1v0.2c0 11.8 0 24.5 0 38q0 10.1 0 20.6c0 3.5 0 7.1 0 10.7-0.1 1.8-0.5 3.6-1.3 5.2-0.8 1.7-1.9 3.1-3.2 4.1-1.2 1-2.6 1.7-4.1 1.9-1.5 0.3-2.9 0.2-4.3 0.2q-4.3 0-8.5 0-8.4 0-16.5 0c-10.8 0-21.1 0-30.8 0h-0.2v-0.3c0-29.1 0-53.7 0.1-70.9 0-8.7 0-15.4 0-20.2 0-2.3 0.1-4.1 0.1-5.3q0-0.9 0-1.4 0-0.4 0-0.4 0 0 0 0.5 0 0.5 0.1 1.3c0 1.3 0 3 0 5.4 0 4.6 0 11.4 0.1 20.1 0 17.3 0 41.8 0.1 70.9l-0.3-0.2c9.7 0 20 0 30.8 0q8.1 0 16.5 0c2.8 0 5.7 0 8.5 0 1.4-0.1 2.9 0 4.3-0.2 1.3-0.3 2.7-0.9 3.9-1.8 1.2-1 2.3-2.4 3-3.9 0.8-1.5 1.2-3.3 1.2-5 0.1-3.6 0-7.1 0.1-10.6q0-10.6 0-20.7c0-13.4 0-26.2 0-38l0.1 0.2c-7.6-8.7-14.5-16.8-20.7-24l0.1 0.1c-15.6 0-28.3-0.1-37.1-0.1-2.2 0-4.2 0-5.9 0-1.6 0.2-2.9 1.2-3.6 2.3-0.7 1-0.9 2-1 2.7-0.2 0.6-0.2 1-0.2 1z"/>
							</g>
						</g>
					</g>
					<g id="Layer">
						<path id="Layer" class="s0" d="m159.4 29l20.6 24h-17.1c-2 0-3.5-1.8-3.5-4.1z"/>
					</g>
					<g id="Layer">
						<path id="Layer" class="s0" d="m162.7 119.1v0.8c0.2 5.8 3.1 11 7.6 13.5h-57.2c-6.8 0-12.4-6.4-12.4-14.3z"/>
					</g>
					<g id="Layer">
						<g id="Layer">
							<path id="Layer" class="s5" d="m134.6 50.4c0 0.2-3.3 0.3-7.4 0.3-4.1 0-7.3-0.1-7.3-0.3 0-0.2 3.3-0.3 7.3-0.3 4.1 0 7.4 0.1 7.4 0.3z"/>
						</g>
					</g>
					<g id="Layer">
						<g id="Layer">
							<path id="Layer" class="s5" d="m165.9 61.2c0 0.1-9.9 0.3-22.1 0.3-12.2 0-22.2-0.2-22.2-0.3 0-0.2 10-0.3 22.2-0.3 12.2 0 22.1 0.1 22.1 0.3z"/>
						</g>
					</g>
					<g id="Layer">
						<g id="Layer">
							<path id="Layer" class="s5" d="m165.9 70.7c0 0.1-9.9 0.3-22.1 0.3-12.2 0-22.2-0.2-22.2-0.3 0-0.2 10-0.4 22.2-0.4 12.2 0 22.1 0.2 22.1 0.4z"/>
						</g>
					</g>
					<g id="Layer">
						<g id="Layer">
							<path id="Layer" class="s5" d="m165.9 80.1c0 0.2-9.9 0.3-22.1 0.3-12.2 0-22.2-0.1-22.2-0.3 0-0.2 10-0.3 22.2-0.3 12.2 0 22.1 0.2 22.1 0.3z"/>
						</g>
					</g>
					<g id="Layer">
						<g id="Layer">
							<path id="Layer" class="s5" d="m165.9 89.6c0 0.2-9.9 0.3-22.1 0.3-12.2 0-22.2-0.1-22.2-0.3 0-0.1 10-0.3 22.2-0.3 12.2 0 22.1 0.2 22.1 0.3z"/>
						</g>
					</g>
					<g id="Layer">
						<g id="Layer">
							<path id="Layer" class="s5" d="m165.9 99.1c0 0.2-9.9 0.3-22.1 0.3-12.2 0-22.2-0.1-22.2-0.3 0-0.2 10-0.3 22.2-0.3 12.2 0 22.1 0.1 22.1 0.3z"/>
						</g>
					</g>
					<g id="Layer">
						<g id="Layer">
							<path id="Layer" class="s5" d="m165.9 108.6c0 0.2-9.9 0.3-22.1 0.3-12.2 0-22.2-0.1-22.2-0.3 0-0.2 10-0.3 22.2-0.3 12.2 0 22.1 0.1 22.1 0.3z"/>
						</g>
					</g>
					<g id="Layer">
						<g id="Layer">
							<g id="Layer">
								<g id="Layer">
									<ellipse id="Layer" class="s8" cx="174" cy="86" rx="18.3" ry="21.1"/>
								</g>
							</g>
						</g>
						<g id="Layer" style="opacity: .3">
							<g id="Layer">
								<g id="Layer">
									<path id="Layer" fill-rule="evenodd" class="s10" d="m175.3 95.7v2.8h-2.2v-2.8c-2.1-0.2-4.2-1-5.4-2l1.3-3.1c1 1 2.6 1.6 4.2 1.8v-4.2c-2.4-0.7-5.1-1.7-5-5.2 0-2.7 1.7-5 5.1-5.4v-2.7h2.2v2.7c1.6 0.2 3.2 0.7 4.4 1.6l-1.2 3.1c-1.1-0.7-2.2-1.2-3.3-1.3v4.2c2.4 0.7 5 1.7 5 5.2 0 2.6-1.7 4.8-5.1 5.3zm-2-11.2v-3.5c-1.1 0.3-1.6 1-1.6 1.8 0 0.9 0.6 1.4 1.6 1.7zm3.6 6.1c0-0.8-0.6-1.3-1.5-1.7l-0.1 3.4c1.1-0.2 1.6-0.9 1.6-1.7z"/>
								</g>
							</g>
						</g>
						<g id="Layer" style="opacity: .3">
							<g id="Layer">
								<g id="Layer">
									<g id="Layer">
										<g id="Layer">
											<path id="Layer" class="s10" d="m187.8 84.6c-0.1 0-0.1-0.7-0.3-1.9-0.2-1.3-0.6-3.1-1.5-5-0.5-1-1.1-2-1.8-3-0.8-1-1.6-1.9-2.7-2.8-0.5-0.4-1.1-0.8-1.7-1.1q-0.9-0.5-1.9-0.9-1-0.3-2-0.5-1.1-0.2-2.2-0.2-1.1 0-2.1 0.2c-0.7 0.1-1.4 0.3-2 0.6q-1 0.3-1.9 0.9-0.9 0.5-1.7 1.1c-1 0.8-1.9 1.8-2.6 2.8-0.7 1-1.3 2-1.8 3-0.9 2-1.2 3.8-1.4 5-0.2 1.3-0.3 2-0.3 2-0.1 0-0.2-0.7-0.1-2 0-1.4 0.3-3.2 1.1-5.4q0.7-1.6 1.8-3.2c0.7-1.1 1.7-2.2 2.8-3.1 0.5-0.4 1.1-0.9 1.7-1.3 0.6-0.3 1.3-0.7 2-0.9q1.1-0.5 2.2-0.7 1.1-0.2 2.3-0.2 1.2 0 2.3 0.2c0.8 0.1 1.5 0.3 2.2 0.6 0.7 0.2 1.4 0.6 2 0.9q1 0.6 1.8 1.3c1.1 0.9 2 1.9 2.8 3 0.7 1.1 1.3 2.2 1.8 3.3 0.9 2.1 1.2 4 1.2 5.3 0.1 1.3 0 2 0 2z"/>
										</g>
									</g>
								</g>
							</g>
						</g>
						<g id="Layer">
							<g id="Layer">
								<g id="Layer">
									<g id="Layer">
										<g id="Layer">
											<path id="Layer" class="s5" d="m187.9 86.1q0 0 0-0.2c0-0.2-0.1-0.5-0.1-0.8q0-0.5-0.1-1.3c0-0.5-0.1-1-0.2-1.6-0.3-1.3-0.7-2.8-1.5-4.4-0.7-1.6-1.8-3.3-3.4-4.7-1.5-1.4-3.5-2.7-5.7-3.2-2.3-0.6-4.9-0.6-7.3 0.5-0.7 0.2-1.2 0.5-1.9 0.8-0.6 0.4-1.1 0.8-1.7 1.3-1.1 0.9-2.1 2-3 3.4-0.8 1.3-1.6 2.7-2 4.4q-0.8 2.4-0.8 5c-0.1 1.8 0.2 3.5 0.5 5.1 0.4 1.6 1.1 3.2 1.9 4.5 0.8 1.4 1.8 2.6 2.8 3.6 0.5 0.5 1.1 0.9 1.7 1.3 0.6 0.4 1.2 0.8 1.8 1 2.4 1.2 5 1.4 7.2 1 2.4-0.5 4.4-1.6 6-2.9 1.6-1.4 2.8-3 3.6-4.5 0.8-1.6 1.3-3 1.6-4.3q0.2-0.9 0.3-1.7c0.1-0.4 0.2-0.9 0.2-1.2q0-0.5 0-0.8 0.1-0.3 0.1-0.3 0 0 0 0.3c0 0.2 0 0.5 0 0.8q0 0.5-0.2 1.2c0 0.5-0.1 1.1-0.3 1.7-0.2 1.3-0.8 2.8-1.6 4.4-0.8 1.5-2 3.2-3.6 4.6-1.6 1.4-3.6 2.5-6 3-2.4 0.4-5 0.2-7.5-1-0.6-0.2-1.2-0.6-1.8-1-0.6-0.4-1.2-0.8-1.7-1.3q-1.6-1.6-2.9-3.7c-0.8-1.4-1.5-2.9-1.8-4.6q-0.7-2.5-0.7-5.2c0.1-1.8 0.4-3.5 0.9-5.2 0.5-1.6 1.2-3.1 2.1-4.5 0.9-1.3 1.9-2.5 3-3.4 0.6-0.5 1.2-0.9 1.8-1.3 0.6-0.3 1.2-0.7 1.9-0.9 2.5-1.1 5.2-1.1 7.5-0.5 2.3 0.6 4.3 1.9 5.8 3.3 1.6 1.5 2.7 3.2 3.4 4.9 0.8 1.6 1.2 3.1 1.4 4.4 0.2 0.6 0.2 1.2 0.2 1.7 0.1 0.5 0.1 0.9 0.1 1.2q0 0.5 0 0.8c0 0.2 0 0.3 0 0.3z"/>
										</g>
									</g>
								</g>
							</g>
						</g>
						<g id="Layer">
							<g id="Layer">
								<g id="Layer">
									<g id="Layer">
										<path id="Layer" class="s1" d="m168.8 105.3q0 0-0.6-0.2-0.5-0.1-1.4-0.5c-1.2-0.6-2.8-1.6-4.4-3.1-1.5-1.5-2.6-3.2-3.2-4.5-0.4-0.6-0.6-1.1-0.8-1.5q-0.2-0.6-0.2-0.7c0.1 0 0.4 0.8 1.1 2.1 0.8 1.2 1.9 2.8 3.3 4.3 1.5 1.4 3.1 2.4 4.2 3.1 1.2 0.6 2 0.9 2 1z"/>
									</g>
								</g>
							</g>
						</g>
						<g id="Layer">
							<g id="Layer">
								<g id="Layer">
									<g id="Layer">
										<path id="Layer" class="s1" d="m171.8 106.2c-0.1 0.1-0.4 0.1-0.8 0-0.5-0.1-0.8-0.3-0.8-0.4 0-0.1 0.4-0.1 0.8 0 0.5 0.1 0.8 0.3 0.8 0.4z"/>
									</g>
								</g>
							</g>
						</g>
					</g>
					<g id="Layer">
						<g id="Layer">
							<path id="Layer" class="s5" d="m170.3 133.4q0 0-0.3-0.1-0.2-0.2-0.7-0.4-0.2-0.2-0.5-0.4-0.3-0.2-0.6-0.4-0.3-0.3-0.7-0.6-0.3-0.3-0.7-0.7c-1-1.1-2.1-2.5-2.9-4.5-0.8-2-1.4-4.5-1.4-7.3l0.2 0.3c-6.4 0-14.5 0-23.3 0-10.6 0-20.3-0.1-27.3-0.1-3.5 0-6.3-0.1-8.3-0.1q-1.4 0-2.3 0-0.7-0.1-0.7-0.1c0 0 0.2 0 0.7 0q0.9-0.1 2.3-0.1c2 0 4.8 0 8.3-0.1 7 0 16.7 0 27.3-0.1 8.8 0 16.9 0.1 23.3 0.1h0.3v0.2c-0.1 2.7 0.4 5.1 1.2 7.1 0.8 1.9 1.8 3.4 2.8 4.5 1.9 2.1 3.4 2.7 3.3 2.8z"/>
						</g>
					</g>
					<g id="Layer">
						<g id="Layer">
							<path id="Layer" class="s5" d="m159.4 29c0 0 0 0.7 0.1 1.9q0 1.9 0.1 4.9c0 2.1 0 4.6 0 7.3q0 2.1 0 4.3c0.1 0.8 0 1.6 0.1 2.3 0.1 0.7 0.4 1.3 0.9 1.9 0.4 0.5 1 0.8 1.6 1 0.6 0.1 1.3 0 1.9 0.1q2-0.1 3.8 0 3.5 0 6.3 0.1 2.6 0 4.3 0.1c1 0 1.5 0 1.5 0.1 0 0-0.5 0.1-1.5 0.1q-1.7 0-4.3 0.1c-1.8 0-4 0.1-6.3 0.1q-1.8 0-3.8 0c-0.6 0-1.3 0.1-2-0.1-0.7-0.1-1.4-0.5-1.9-1.1-0.5-0.6-0.9-1.4-1-2.2-0.1-0.9 0-1.6 0-2.4q0-2.3 0-4.3c0-2.7 0-5.2 0-7.3 0.1-2 0.1-3.7 0.1-5 0-1.2 0-1.9 0.1-1.9z"/>
						</g>
					</g>
				</g>
				<g id="Layer">
					<g id="Layer">
						<path id="Layer" class="s5" d="m233.9 245.7c-0.1 0.1-12.3-20.4-27.1-45.9-14.9-25.5-26.8-46.2-26.8-46.3 0.2-0.1 12.3 20.5 27.2 45.9 14.9 25.5 26.8 46.3 26.7 46.3z"/>
					</g>
				</g>
			</g>
			<g id="Layer">
				<g id="Layer">
					<g id="Layer">
						<ellipse id="Layer" class="s3" cx="68.5" cy="305.9" rx="70.5" ry="81.6"/>
					</g>
					<g id="Layer">
						<g id="Layer">
							<path id="Layer" class="s5" d="m139 305.9q0 0-0.1-1.4c0-0.8 0-2.1-0.1-3.8-0.2-3.4-0.7-8.4-2-14.7-0.8-3.1-1.6-6.6-2.9-10.2-1.3-3.7-2.9-7.6-4.9-11.5-4.1-7.9-10-16.1-17.9-23.2-4-3.5-8.5-6.6-13.5-9.2-4.9-2.6-10.4-4.7-16.2-5.9-5.7-1.2-11.8-1.7-18.1-1.2-3.1 0.3-6.3 0.8-9.4 1.6q-4.7 1.1-9.4 3.1c-12.4 5.2-24.2 14.9-32.7 28.3-2.1 3.3-4 6.9-5.7 10.7-1.7 3.7-3.1 7.6-4.3 11.7-2.4 8.2-3.5 16.9-3.6 25.7 0 8.8 1.2 17.5 3.6 25.7 0.5 2 1.3 4 1.9 6 0.8 1.9 1.5 3.8 2.4 5.7 1.7 3.8 3.6 7.4 5.7 10.7 8.5 13.4 20.3 23.2 32.7 28.3q4.7 2 9.4 3.1c3.1 0.8 6.3 1.3 9.4 1.6 6.3 0.5 12.4 0 18.1-1.2 5.8-1.2 11.3-3.3 16.2-5.9 5-2.6 9.5-5.8 13.5-9.3 7.9-7 13.8-15.2 17.9-23.1 2-3.9 3.6-7.8 4.9-11.5 1.3-3.6 2.1-7.1 2.9-10.2 1.3-6.3 1.8-11.3 2-14.7 0.1-1.7 0.1-3 0.1-3.9 0.1-0.9 0.1-1.3 0.1-1.3 0 0 0 1.8-0.1 5.2-0.2 3.4-0.6 8.4-1.9 14.7-0.7 3.2-1.6 6.7-2.9 10.3-1.2 3.7-2.8 7.6-4.8 11.5-4.1 8-10 16.2-18 23.3-3.9 3.6-8.5 6.7-13.4 9.4-5 2.6-10.5 4.8-16.3 6-5.8 1.2-12 1.7-18.2 1.2-3.2-0.2-6.3-0.8-9.5-1.6q-4.8-1.1-9.5-3.1c-12.5-5.2-24.3-14.9-32.9-28.5-2.2-3.3-4.1-7-5.8-10.7-0.9-1.9-1.6-3.9-2.4-5.8-0.6-2-1.4-4-1.9-6.1-2.4-8.2-3.6-17-3.6-25.8 0-8.9 1.2-17.7 3.6-25.9 1.2-4.1 2.6-8.1 4.4-11.8 1.7-3.8 3.6-7.4 5.7-10.8 8.6-13.5 20.5-23.3 33-28.5 3.1-1.3 6.3-2.3 9.4-3.1 3.2-0.7 6.4-1.3 9.5-1.5 6.3-0.6 12.5-0.1 18.2 1.2 5.9 1.2 11.3 3.3 16.3 5.9 5 2.7 9.5 5.9 13.5 9.4 8 7.1 13.8 15.4 17.9 23.3 2 4 3.6 7.9 4.9 11.5 1.3 3.7 2.1 7.2 2.8 10.3 1.4 6.3 1.8 11.4 1.9 14.8 0.2 3.4 0.1 5.2 0.1 5.2z"/>
						</g>
					</g>
				</g>
				<g id="Layer">
					<g id="Layer">
						<g id="Layer">
							<g id="Layer">
								<g id="Layer">
									<g id="Layer">
										<path id="Layer" class="s8" d="m9.7 304.1h111.8v19h-111.8z"/>
									</g>
								</g>
							</g>
							<g id="Layer" style="opacity: .5">
								<g id="Layer">
									<g id="Layer">
										<path id="Layer" class="s10" d="m9.7 304.1h111.8v19h-111.8z"/>
									</g>
								</g>
							</g>
						</g>
						<g id="Layer">
							<g id="Layer">
								<g id="Layer">
									<g id="Layer">
										<g id="Layer">
											<g id="Layer">
												<g id="Layer">
													<g id="Layer">
														<ellipse id="Layer" class="s5" cx="24.7" cy="323" rx="10.8" ry="12.5"/>
													</g>
												</g>
											</g>
										</g>
									</g>
								</g>
							</g>
							<g id="Layer">
								<g id="Layer">
									<g id="Layer">
										<g id="Layer">
											<g id="Layer">
												<g id="Layer">
													<g id="Layer">
														<path id="Layer" class="s5" d="m35.5 323.1c-0.1 6.9-5 12.4-11 12.3-5.9-0.1-10.7-5.7-10.6-12.6v-0.1z"/>
													</g>
												</g>
											</g>
										</g>
									</g>
								</g>
							</g>
							<g id="Layer">
								<g id="Layer">
									<g id="Layer">
										<g id="Layer">
											<g id="Layer">
												<g id="Layer">
													<g id="Layer">
														<ellipse id="Layer" class="s4" cx="24.7" cy="323" rx="7.6" ry="8.8"/>
													</g>
												</g>
											</g>
										</g>
									</g>
								</g>
							</g>
							<g id="Layer">
								<g id="Layer">
									<g id="Layer">
										<g id="Layer">
											<g id="Layer">
												<g id="Layer">
													<g id="Layer">
														<path id="Layer" class="s0" d="m32.3 323.1l-15.2-0.3c0.1-4.8 3.5-8.7 7.7-8.6 4.2 0.1 7.5 4.1 7.5 8.9z"/>
													</g>
												</g>
											</g>
										</g>
									</g>
								</g>
							</g>
							<g id="Layer">
								<g id="Layer">
									<g id="Layer">
										<g id="Layer">
											<g id="Layer">
												<g id="Layer">
													<g id="Layer">
														<ellipse id="Layer" class="s5" cx="24.7" cy="323" rx="4.6" ry="5.3"/>
													</g>
												</g>
											</g>
										</g>
									</g>
								</g>
							</g>
						</g>
						<g id="Layer">
							<g id="Layer">
								<g id="Layer">
									<g id="Layer">
										<g id="Layer">
											<g id="Layer">
												<g id="Layer">
													<g id="Layer">
														<ellipse id="Layer" class="s5" cx="107.2" cy="323" rx="10.8" ry="12.5"/>
													</g>
												</g>
											</g>
										</g>
									</g>
								</g>
							</g>
							<g id="Layer">
								<g id="Layer">
									<g id="Layer">
										<g id="Layer">
											<g id="Layer">
												<g id="Layer">
													<g id="Layer">
														<path id="Layer" class="s5" d="m118 323.1c-0.1 6.9-5 12.4-11 12.3-5.9-0.1-10.7-5.7-10.6-12.6v-0.1z"/>
													</g>
												</g>
											</g>
										</g>
									</g>
								</g>
							</g>
							<g id="Layer">
								<g id="Layer">
									<g id="Layer">
										<g id="Layer">
											<g id="Layer">
												<g id="Layer">
													<g id="Layer">
														<ellipse id="Layer" class="s4" cx="107.2" cy="323" rx="7.6" ry="8.8"/>
													</g>
												</g>
											</g>
										</g>
									</g>
								</g>
							</g>
							<g id="Layer">
								<g id="Layer">
									<g id="Layer">
										<g id="Layer">
											<g id="Layer">
												<g id="Layer">
													<g id="Layer">
														<path id="Layer" class="s0" d="m114.8 323.1l-15.2-0.3c0.1-4.8 3.5-8.7 7.7-8.6 4.2 0.1 7.5 4.1 7.5 8.9z"/>
													</g>
												</g>
											</g>
										</g>
									</g>
								</g>
							</g>
							<g id="Layer">
								<g id="Layer">
									<g id="Layer">
										<g id="Layer">
											<g id="Layer">
												<g id="Layer">
													<g id="Layer">
														<ellipse id="Layer" class="s5" cx="107.2" cy="323" rx="4.6" ry="5.3"/>
													</g>
												</g>
											</g>
										</g>
									</g>
								</g>
							</g>
						</g>
						<g id="Layer">
							<g id="Layer">
								<g id="Layer">
									<path id="Layer" class="s8" d="m58.7 281.5c4.2-2.1 11.8-2.8 11.8-2.8 0 0 22.1-0.1 27.7 0 4.5 0 7 0.2 7.9 0.3q0.4 0 0.7 0.2c1.5 0.6 7.7 3.1 10.9 4.3 0.7 0.3 0.8 1.5 0.2 2l-0.4 0.3c0 0 8.3 8.8 9.8 10.2 1.6 1.5 0.6 9.9 0.6 9.9 1 0.1 1.7 1 1.8 2.1l0.1 3.4c0 0 0.6 3.8-1.9 9.1-2.5 5.3-8 4.7-8 4.7 0 0 2.3-17.6-12.6-17.6-14.8 0-12.5 17.5-12.5 17.5h-57.5c0 0 0.9-17.9-12.9-17.4-13.5 0.5-12.2 17.6-12.2 17.6 0 0-2.2 0-3.3 0-6.9-0.3-6.2-6.5-6.2-10.5 0-4 3-5.6 3-5.6l-0.7-4.1c-0.1-5.9 7.9-7.7 12.1-8.8 5.8-1.5 21.7-2.9 21.7-2.9 0 0 15.4-9.6 19.9-11.9z"/>
								</g>
							</g>
						</g>
						<g id="Layer" style="opacity: .4">
							<g id="Layer">
								<g id="Layer">
									<g id="Layer">
										<path id="Layer" class="s10" d="m7.2 314.6c0.1 0.2 0.1 0.4 0.2 0.6 0.1 0.9 0.1 1.6 0.1 2.5 0 0.7-0.1 1.3-0.4 1.8-0.5 0.5-1.2 0.6-1.7 0.2-0.5-0.3-0.9-0.9-1-1.6-0.1-0.7-0.1-1.4 0-2.1 0-0.5 0.1-1 0.4-1.4 0.4-0.4 1.3-0.4 1.9-0.3 0.2 0.1 0.3 0.1 0.5 0.3z"/>
									</g>
								</g>
							</g>
						</g>
						<g id="Layer">
							<g id="Layer">
								<g id="Layer">
									<path id="Layer" class="s4" d="m5 305.1c1.3-0.5 2.7-0.6 4.1-0.5 0.5 0.1 1.1 0.2 1.5 0.6 0.7 0.7 0.7 1.9 0.7 3 0 0.2 0 0.5-0.1 0.7-0.1 0.1-0.3 0.1-0.5 0.1-1.7 0.1-3.4 0.2-5 0.2z"/>
								</g>
							</g>
						</g>
						<g id="Layer">
							<g id="Layer">
								<g id="Layer">
									<g id="Layer">
										<path id="Layer" class="s5" d="m41.3 324.9q0 0 0-0.2 0-0.1 0-0.4c0-0.4-0.1-0.9-0.1-1.6q0-2.1-0.1-6.1c-0.1-2.6-0.2-5.8-0.2-9.5-0.1-0.9-0.1-1.9-0.1-2.8q-0.1-0.8 0.1-1.5 0-0.4 0-0.8c0.1-0.2 0.1-0.5 0.2-0.7q0.3-1.5 0.9-3c0.4-1 0.9-1.9 1.5-2.8 3-2.3 6.4-4.7 9.9-7.3q1.4-1 2.7-1.9c0.9-0.7 1.9-1.3 2.9-1.9 1-0.5 2-1 3.1-1.4q0.8-0.3 1.6-0.6c0.6-0.1 1.1-0.3 1.7-0.5 2.1-0.5 4.2-0.8 6.4-0.9q3.2-0.2 6.2 0h0.1v0.1c-1 4.9-1.9 9.6-2.7 13.8-0.5 1-0.9 2-1.2 3-0.3 1-0.5 2.1-0.4 3.1q0.1 1.5 0.1 3 0 1.4 0 2.8c0.1 3.7 0.1 6.9 0.1 9.5 0 2.6 0 4.7 0 6.1q0 1 0 1.6 0 0.2 0 0.4 0 0.2 0 0.2 0 0 0-0.2 0-0.1 0-0.4 0-0.6 0-1.6c0-1.4 0-3.5 0-6.1-0.1-2.6-0.1-5.8-0.1-9.5-0.1-0.9-0.1-1.8-0.1-2.8q0-1.5-0.1-3c-0.1-1 0.1-2.1 0.4-3.1 0.3-1.1 0.7-2.1 1.2-3 0.8-4.3 1.7-8.9 2.7-13.9v0.1q-3-0.2-6.2 0c-2.1 0.1-4.3 0.4-6.4 0.9q-0.8 0.2-1.7 0.5-0.8 0.2-1.6 0.6c-1 0.4-2 0.8-3 1.4-1 0.5-2 1.1-2.9 1.8-0.9 0.7-1.8 1.3-2.7 2-3.5 2.5-6.9 5-10 7.2-0.5 0.9-1 1.9-1.4 2.8q-0.6 1.5-0.9 3c-0.5 2-0.3 4-0.3 5.8 0.1 3.7 0.2 6.9 0.2 9.5 0.1 2.6 0.1 4.7 0.2 6.1 0 0.7 0 1.3 0 1.6q0 0.3 0 0.5 0 0.1 0 0.1z"/>
									</g>
								</g>
							</g>
						</g>
						<g id="Layer">
							<g id="Layer">
								<g id="Layer">
									<g id="Layer">
										<path id="Layer" class="s5" d="m71.1 302q0 0 0.2-0.1c0.1 0 0.2 0 0.4-0.1 0.2-0.2 0.4-0.4 0.4-0.7q0.1-0.2 0.1-0.5 0-0.3-0.1-0.6c-0.2-0.3-0.6-0.6-1-0.6q-0.6 0-1.4 0c-0.9 0-2 0-3.1 0-0.2 0-0.5 0.1-0.7 0.3-0.2 0.2-0.3 0.5-0.3 0.8q-0.1 0.4 0.1 0.8 0.2 0.4 0.5 0.5c0.3 0.1 0.5 0.1 0.7 0.1q0.4 0 0.7 0 0.6 0 1.1 0 1.1 0 1.8 0 0.3 0 0.4 0 0.2 0.1 0.2 0.1 0 0-0.2 0c-0.1 0-0.2 0-0.4 0q-0.6 0-1.7 0-0.6 0-1.2 0c-0.2 0-0.4 0-0.7 0-0.1 0-0.2 0-0.3 0-0.1 0-0.2 0-0.4-0.1q-0.3-0.2-0.5-0.6c-0.1-0.2-0.2-0.6-0.1-0.9q0-0.5 0.3-0.8c0.2-0.3 0.5-0.4 0.8-0.4q1.6 0 3.1 0 0.7 0 1.4 0c0.4 0 0.8 0.3 1 0.7q0.1 0.3 0.1 0.7c0 0.1 0 0.3-0.1 0.5-0.1 0.3-0.2 0.5-0.4 0.7q-0.3 0.1-0.5 0.1-0.2 0.1-0.2 0.1z"/>
									</g>
								</g>
							</g>
						</g>
						<g id="Layer">
							<g id="Layer">
								<g id="Layer">
									<g id="Layer">
										<path id="Layer" class="s5" d="m100.9 302q0.1 0 0.2-0.1c0.1 0 0.3 0 0.4-0.1 0.2-0.2 0.4-0.4 0.5-0.7q0-0.2 0-0.5 0-0.3-0.1-0.6c-0.2-0.3-0.5-0.6-1-0.6q-0.6 0-1.3 0c-1 0-2 0-3.1 0-0.3 0-0.6 0.1-0.8 0.3-0.2 0.2-0.3 0.5-0.3 0.8q0 0.4 0.1 0.8 0.2 0.4 0.6 0.5c0.2 0.1 0.4 0.1 0.7 0.1q0.3 0 0.6 0 0.6 0 1.2 0 1.1 0 1.7 0 0.3 0 0.4 0 0.2 0.1 0.2 0.1 0 0-0.1 0c-0.1 0-0.3 0-0.5 0q-0.6 0-1.7 0-0.5 0-1.2 0c-0.2 0-0.4 0-0.6 0-0.1 0-0.2 0-0.4 0-0.1 0-0.2 0-0.3-0.1q-0.4-0.2-0.6-0.6c-0.1-0.2-0.1-0.6-0.1-0.9q0-0.5 0.3-0.8c0.2-0.3 0.5-0.4 0.8-0.4q1.7 0 3.1 0 0.8 0 1.4 0c0.5 0 0.8 0.3 1 0.7q0.2 0.3 0.1 0.7c0 0.1 0 0.3 0 0.5-0.1 0.3-0.3 0.5-0.5 0.7q-0.2 0.1-0.4 0.1c-0.2 0.1-0.3 0.1-0.3 0.1z"/>
									</g>
								</g>
							</g>
						</g>
						<g id="Layer">
							<g id="Layer">
								<g id="Layer">
									<path id="Layer" class="s4" d="m127.4 306l-6 0.1-2.3-6.2c-0.3-0.7-0.3-1.5 0-2.2 0.4-0.8 1.2-1.3 2-1.3h6c1.6 1.8 0.3 9.6 0.3 9.6z"/>
								</g>
							</g>
						</g>
						<g id="Layer">
							<g id="Layer">
								<g id="Layer">
									<path id="Layer" class="s5" d="m58.5 284.5c6.6-4.4 15.1-3.8 15.1-3.8l22.4 0.2c0.7 0 1.4 0.4 1.8 1.1l4.1 6.2c0.4 0.6 0.2 1.4-0.3 1.8l-6.6 4.4-20 0.4-30.8 0.7c0 0 7.3-6.5 14.3-11z"/>
								</g>
							</g>
						</g>
						<g id="Layer">
							<g id="Layer">
								<g id="Layer">
									<path id="Layer" class="s9" d="m58.3 281.4c0 0 1.6 0.8 0.6 1.6-1 0.7-16.6 12.1-16.6 12.1l-3.6-1.9c6.3-4.1 12.7-8.1 19.6-11.8z"/>
								</g>
							</g>
						</g>
						<g id="Layer">
							<g id="Layer">
								<g id="Layer">
									<path id="Layer" class="s9" d="m126.7 295.3l-4.1-0.9c0 0-5.6-4.5-6.1-5.8-0.5-1.4 0.8-3.1 0.8-3.1z"/>
								</g>
							</g>
						</g>
						<g id="Layer">
							<g id="Layer">
								<g id="Layer">
									<path id="Layer" class="s9" d="m96.5 282.3l4.3 6.4-6.6 4.5-16.3 0.5 0.9-11.4z"/>
								</g>
							</g>
						</g>
						<g id="Layer">
							<g id="Layer">
								<g id="Layer">
									<path id="Layer" class="s9" d="m48.1 294.3c0 0 9.8-8.3 13.7-9.9 3.7-1.5 5.7-2 9.2-2.1 3.4-0.1 5.4 0 5.4 0l-2.6 11.6z"/>
								</g>
							</g>
						</g>
						<g id="Layer">
							<g id="Layer">
								<g id="Layer">
									<g id="Layer">
										<path id="Layer" class="s8" d="m46.6 294.3c0-0.7 0.4-1.4 0.9-1.8l2.3-1.4q1-0.7 2.1-0.7 0.7 0 1.3 0.3c1 0.3 1.7 1.4 1.7 2.6 0.1 1.6-1.1 3-2.5 3h-4c-1 0-1.8-0.9-1.8-2z"/>
									</g>
								</g>
							</g>
							<g id="Layer">
								<g id="Layer">
									<g id="Layer">
										<g id="Layer">
											<path id="Layer" class="s5" d="m46.6 294.3q0 0 0.1 0.2c0 0.2 0 0.4 0.2 0.7 0.1 0.3 0.3 0.6 0.6 0.8q0.3 0.2 0.6 0.2 0.4 0.1 0.7 0c1 0 2.2 0 3.5 0q0.4 0 0.9-0.2 0.5-0.2 0.9-0.6 0.4-0.4 0.6-1c0.1-0.4 0.1-0.8 0.1-1.2 0-0.9-0.4-1.6-1-2.1q-0.4-0.3-0.9-0.5-0.5-0.1-1-0.1c-0.6 0-1.2 0.2-1.8 0.5-0.2 0.1-0.4 0.3-0.7 0.4q-0.3 0.3-0.7 0.4-0.6 0.5-1.2 0.8c-0.3 0.2-0.5 0.5-0.6 0.8-0.2 0.3-0.2 0.5-0.2 0.7q-0.1 0.2-0.1 0.2 0 0 0-0.3 0-0.2 0.2-0.6c0.2-0.3 0.4-0.7 0.7-0.9q0.5-0.3 1.2-0.7c0.2-0.2 0.4-0.3 0.7-0.5 0.2-0.1 0.4-0.3 0.7-0.4 0.5-0.3 1.2-0.5 1.8-0.5q0.5 0 1 0.1c0.4 0.1 0.7 0.3 1 0.5 0.6 0.5 1 1.3 1.1 2.2q0 0.7-0.2 1.3c-0.1 0.4-0.3 0.7-0.6 1q-0.3 0.5-0.8 0.7c-0.4 0.1-0.7 0.2-1 0.1-1.3 0-2.5 0-3.5 0q-0.4 0-0.7 0c-0.2 0-0.4-0.1-0.6-0.2-0.3-0.3-0.6-0.6-0.7-0.9-0.1-0.2-0.2-0.5-0.2-0.7-0.1-0.1-0.1-0.2-0.1-0.2z"/>
										</g>
									</g>
								</g>
							</g>
						</g>
						<g id="Layer">
							<g id="Layer">
								<g id="Layer">
									<g id="Layer">
										<path id="Layer" class="s11" d=""/>
									</g>
								</g>
							</g>
						</g>
						<g id="Layer">
							<g id="Layer">
								<g id="Layer">
									<g id="Layer">
										<path id="Layer" class="s1" d="m70.7 299c0 0-0.8 0-1.7 0-1 0-1.8 0-1.8 0 0-0.1 0.8-0.1 1.8-0.1 0.9 0 1.7 0 1.7 0.1z"/>
									</g>
								</g>
							</g>
						</g>
						<g id="Layer">
							<g id="Layer">
								<g id="Layer">
									<g id="Layer">
										<path id="Layer" class="s1" d="m100.4 298.8c0 0-1.3 0.1-2.8 0.1-1.5 0-2.7 0-2.7 0 0-0.1 1.2-0.1 2.7-0.2 1.6 0 2.8 0 2.8 0.1z"/>
									</g>
								</g>
							</g>
						</g>
						<g id="Layer">
							<g id="Layer">
								<g id="Layer">
									<g id="Layer">
										<path id="Layer" class="s1" d="m52.9 291.6c0-0.1-0.1-0.2-0.2-0.3-0.1-0.1-0.4-0.3-0.7-0.3-0.3 0-0.6 0-1 0.1-0.4 0.2-0.9 0.3-1.3 0.5-0.9 0.5-1.6 1.1-2.1 1.5-0.5 0.5-0.7 0.8-0.7 0.8q0 0 0.1-0.2c0.2-0.2 0.3-0.4 0.5-0.6 0.5-0.5 1.2-1.1 2.1-1.6q0.7-0.3 1.3-0.5c0.4-0.1 0.8-0.1 1.1-0.1 0.4 0.1 0.6 0.3 0.7 0.4q0.1 0.1 0.1 0.2 0.1 0 0.1 0z"/>
									</g>
								</g>
							</g>
						</g>
					</g>
				</g>
				<g id="Layer">
					<g id="Layer">
						<path id="Layer" class="s5" d="m203.5 297.8c0 0.1-14.4 0.3-32.2 0.3-17.8 0-32.1-0.2-32.1-0.4 0-0.1 14.4-0.3 32.1-0.3 17.8 0 32.2 0.2 32.2 0.3z"/>
					</g>
				</g>
			</g>
		</g>
	</g>
</svg>